<svg width="346" height="126" viewBox="0 0 346 126" fill="none" xmlns="http://www.w3.org/2000/svg">
<g filter="url(#filter0_f_14_96)">
<path d="M240 39C240 27.9543 248.954 19 260 19H324C335.046 19 344 27.9543 344 39V104C344 115.046 335.046 124 324 124H260C248.954 124 240 115.046 240 104V39Z" fill="#666666"/>
</g>
<g filter="url(#filter1_f_14_96)">
<path d="M2 39C2 27.9543 10.9543 19 22 19H86C97.0457 19 106 27.9543 106 39V104C106 115.046 97.0457 124 86 124H22C10.9543 124 2 115.046 2 104L2 39Z" fill="white"/>
</g>
<path d="M29.972 29.872H30.836V38.596L29.972 38.728V29.872ZM30.416 29.872H35.216V34.792H30.416V34H34.34V30.676H30.416V29.872ZM30.44 31.936H34.772V32.692H30.44V31.936ZM32.12 28.432H33.008V30.304H32.12V28.432ZM29.048 38.512C30.068 38.344 31.58 38.044 33.08 37.732L33.152 38.524C31.784 38.836 30.356 39.136 29.276 39.364L29.048 38.512ZM32.708 34.312C33.224 36.376 34.352 38.02 36.164 38.704C35.948 38.872 35.684 39.232 35.564 39.472C33.656 38.632 32.528 36.82 31.964 34.456L32.708 34.312ZM35.264 35.056L35.9 35.56C35.24 36.136 34.364 36.736 33.692 37.132L33.152 36.652C33.8 36.244 34.724 35.572 35.264 35.056ZM24.98 30.904H28.664V31.744H24.98V30.904ZM26.624 28.432L27.488 28.516C27.056 30.904 26.372 34.12 25.868 36.112L25.124 35.704C25.604 33.892 26.252 30.7 26.624 28.432ZM25.508 35.248L26.036 34.612C27.272 35.476 28.76 36.724 29.432 37.6L28.856 38.344C28.196 37.432 26.744 36.124 25.508 35.248ZM28.352 30.904H28.508L28.664 30.88L29.18 30.952C28.904 35.632 27.74 38.164 25.628 39.472C25.496 39.256 25.268 38.932 25.076 38.74C26.972 37.696 28.112 35.176 28.352 31.084V30.904ZM43.256 30.316C43.1 31.564 42.86 32.968 42.488 34.252C41.756 36.712 40.796 37.984 39.692 37.984C38.612 37.984 37.544 36.76 37.544 34.768C37.544 32.164 39.86 29.896 42.8 29.896C45.608 29.896 47.396 31.876 47.396 34.312C47.396 36.82 45.74 38.5 42.884 38.872L42.332 37.984C42.716 37.948 43.076 37.9 43.364 37.84C44.9 37.492 46.412 36.34 46.412 34.264C46.412 32.344 45.08 30.76 42.776 30.76C40.136 30.76 38.492 32.932 38.492 34.696C38.492 36.208 39.176 36.88 39.716 36.88C40.28 36.88 40.928 36.064 41.54 34.036C41.888 32.896 42.14 31.54 42.26 30.292L43.256 30.316ZM55.364 36.568H60.008V37.324H55.364V36.568ZM57.992 32.656H59.888V33.412H57.992V32.656ZM56.024 31.468H56.78V37.048H56.024V31.468ZM57.668 29.476H58.448V37.072H57.668V29.476ZM59.252 28.576L59.912 29.224C58.808 29.704 57.14 30.064 55.712 30.292C55.676 30.1 55.556 29.812 55.448 29.62C56.816 29.392 58.388 29.008 59.252 28.576ZM52.712 29.176H54.608V29.98H52.712V29.176ZM53.516 32.62H55.088V33.352H53.516V32.62ZM54.356 29.176H54.452L54.596 29.128L55.148 29.272C54.752 30.544 54.08 32.464 53.516 33.892L52.772 33.736C53.336 32.308 54.02 30.304 54.356 29.284V29.176ZM54.812 32.62H54.956L55.088 32.596L55.556 32.704C55.292 36.208 54.392 38.332 52.832 39.484C52.724 39.28 52.496 38.968 52.304 38.812C53.696 37.876 54.584 35.836 54.812 32.764V32.62ZM53.492 34.468C54.092 37.612 55.46 38.296 57.524 38.296C57.848 38.296 59.732 38.296 60.164 38.284C60.032 38.5 59.9 38.884 59.864 39.112H57.476C55.004 39.112 53.54 38.308 52.808 34.684L53.492 34.468ZM49.436 32.056H52.364V32.776H49.436V32.056ZM49.496 28.852H52.34V29.572H49.496V28.852ZM49.436 33.664H52.364V34.384H49.436V33.664ZM48.956 30.424H52.652V31.168H48.956V30.424ZM49.832 35.284H52.376V38.776H49.832V38.032H51.632V36.028H49.832V35.284ZM49.412 35.284H50.144V39.34H49.412V35.284ZM62.996 30.76H71.312V31.636H62.996V30.76ZM62.468 34.276H70.88V35.14H62.468V34.276ZM61.16 38.2H71.876V39.076H61.16V38.2ZM66.056 28.432H66.98V38.644H66.056V28.432ZM63.356 28.624L64.28 28.828C63.752 30.688 62.912 32.464 61.952 33.616C61.772 33.46 61.364 33.196 61.136 33.076C62.12 32.008 62.9 30.34 63.356 28.624ZM74.612 29.236H82.472V39.28H81.524V30.148H75.536V39.328H74.612V29.236ZM75.224 33.4H81.92V34.288H75.224V33.4ZM75.212 37.648H81.944V38.548H75.212V37.648Z" fill="black"/>
<path d="M49.054 76.581C50.125 76.768 50.754 77.108 51.315 77.822C51.842 78.451 52.063 79.165 52.063 80.151C52.063 81.222 51.672 82.191 50.941 82.871C49.904 83.857 48.17 84.384 46.045 84.384C43.886 84.384 42.135 83.823 41.115 82.82C40.435 82.157 40.078 81.222 40.078 80.151C40.078 78.978 40.52 78.043 41.387 77.363C41.914 76.955 42.356 76.751 43.172 76.581C42.322 76.309 41.931 76.105 41.523 75.646C40.996 75.085 40.707 74.32 40.707 73.47C40.707 72.586 40.945 71.821 41.404 71.243C42.305 70.138 43.988 69.509 46.062 69.509C49.36 69.509 51.451 71.005 51.451 73.368C51.451 74.983 50.669 76.02 49.054 76.581ZM46.079 72.195C44.855 72.195 44.073 72.773 44.073 73.691C44.073 74.626 44.855 75.221 46.096 75.221C47.32 75.221 48.068 74.643 48.068 73.691C48.068 72.773 47.303 72.195 46.079 72.195ZM46.096 78.026C44.532 78.026 43.58 78.723 43.58 79.862C43.58 80.967 44.515 81.63 46.062 81.63C47.643 81.63 48.544 80.967 48.544 79.828C48.544 78.689 47.626 78.026 46.096 78.026ZM55.3684 81.137V78.094C56.1334 77.244 56.1334 77.244 57.0004 76.224L60.6894 71.906C61.5054 70.971 61.8284 70.546 62.2704 69.883H65.7554C65.6534 70.886 65.6194 71.566 65.6194 72.705V78.23H66.1124C66.6394 78.23 67.2004 78.179 67.7954 78.094V81.188C67.2854 81.12 66.6564 81.086 66.1294 81.086H65.6194V81.936C65.6194 82.888 65.6534 83.381 65.7554 84.027H62.2534C62.3384 83.449 62.3894 82.735 62.3894 81.902V81.069H57.5784C56.4734 81.069 55.9974 81.086 55.3684 81.137ZM62.4064 78.264V76.292C62.4064 75.527 62.4404 74.592 62.5084 73.844C62.1684 74.32 61.9134 74.66 61.4544 75.238L58.9724 78.264H62.4064Z" fill="black"/>
<path d="M48.101 101.667V90.77C48.101 90.107 48.067 89.512 48.016 88.951C48.56 89.019 49.121 89.036 49.903 89.036H58.131C58.93 89.036 59.457 89.019 59.967 88.951C59.899 89.597 59.882 90.09 59.882 90.685V101.667C59.882 102.551 59.916 103.112 59.984 103.724H57.927V102.704H50.022V103.724H47.999C48.067 103.146 48.101 102.466 48.101 101.667ZM50.022 90.838V94.782H57.927V90.838H50.022ZM50.022 96.567V100.919H57.927V96.567H50.022Z" fill="black"/>
<circle cx="54.5" cy="85.5" r="28.5" stroke="#FF275B" stroke-opacity="0.46" stroke-width="7"/>
<mask id="path-7-inside-1_14_96" fill="white">
<path d="M27.6625 102.928C30.652 107.532 34.7752 111.289 39.6359 113.838C44.4966 116.388 49.9314 117.644 55.4179 117.487C60.9045 117.329 66.2583 115.763 70.9648 112.939C75.6713 110.115 79.5723 106.128 82.2928 101.361C85.0133 96.5935 86.4618 91.2068 86.4993 85.7181C86.5367 80.2294 85.1617 74.8234 82.5064 70.0196C79.8511 65.2158 76.0049 61.1758 71.3373 58.2878C66.6697 55.3997 61.3377 53.7609 55.8539 53.5287L55.556 60.5623C59.8334 60.7435 63.9924 62.0218 67.6331 64.2745C71.2738 66.5271 74.2739 69.6783 76.345 73.4253C78.4161 77.1723 79.4886 81.389 79.4594 85.6701C79.4302 89.9513 78.3004 94.153 76.1784 97.8713C74.0564 101.59 71.0136 104.7 67.3425 106.903C63.6715 109.105 59.4955 110.327 55.216 110.45C50.9365 110.573 46.6974 109.593 42.906 107.604C39.1146 105.615 35.8985 102.685 33.5668 99.0942L27.6625 102.928Z"/>
</mask>
<path d="M27.6625 102.928C30.652 107.532 34.7752 111.289 39.6359 113.838C44.4966 116.388 49.9314 117.644 55.4179 117.487C60.9045 117.329 66.2583 115.763 70.9648 112.939C75.6713 110.115 79.5723 106.128 82.2928 101.361C85.0133 96.5935 86.4618 91.2068 86.4993 85.7181C86.5367 80.2294 85.1617 74.8234 82.5064 70.0196C79.8511 65.2158 76.0049 61.1758 71.3373 58.2878C66.6697 55.3997 61.3377 53.7609 55.8539 53.5287L55.556 60.5623C59.8334 60.7435 63.9924 62.0218 67.6331 64.2745C71.2738 66.5271 74.2739 69.6783 76.345 73.4253C78.4161 77.1723 79.4886 81.389 79.4594 85.6701C79.4302 89.9513 78.3004 94.153 76.1784 97.8713C74.0564 101.59 71.0136 104.7 67.3425 106.903C63.6715 109.105 59.4955 110.327 55.216 110.45C50.9365 110.573 46.6974 109.593 42.906 107.604C39.1146 105.615 35.8985 102.685 33.5668 99.0942L27.6625 102.928Z" stroke="#FF275B" stroke-opacity="0.46" stroke-width="14" mask="url(#path-7-inside-1_14_96)"/>
<g filter="url(#filter2_f_14_96)">
<path d="M121 39C121 27.9543 129.954 19 141 19H205C216.046 19 225 27.9543 225 39V104C225 115.046 216.046 124 205 124H141C129.954 124 121 115.046 121 104V39Z" fill="white"/>
</g>
<mask id="mask0_14_96" style="mask-type:alpha" maskUnits="userSpaceOnUse" x="121" y="19" width="104" height="105">
<path d="M121 39C121 27.9543 129.954 19 141 19H205C216.046 19 225 27.9543 225 39V104C225 115.046 216.046 124 205 124H141C129.954 124 121 115.046 121 104V39Z" fill="white"/>
</mask>
<g mask="url(#mask0_14_96)">
<path d="M117 25L171 8L229 25V38H117V25Z" fill="#FF7171"/>
</g>
<path d="M139.94 28.66V32.908H139.076V29.5H137.552V28.66H139.94ZM139.94 32.548C140.504 33.436 141.56 33.844 142.988 33.892C144.32 33.952 147.092 33.916 148.544 33.82C148.436 34.024 148.292 34.444 148.256 34.708C146.9 34.768 144.332 34.792 142.988 34.732C141.404 34.672 140.312 34.252 139.568 33.304C139.04 33.82 138.488 34.336 137.888 34.864L137.42 33.988C137.948 33.604 138.596 33.064 139.16 32.548H139.94ZM137.66 24.724L138.344 24.232C139.088 24.772 139.928 25.6 140.3 26.188L139.556 26.752C139.22 26.152 138.392 25.312 137.66 24.724ZM143.972 25.324H144.836V33.568H143.972V25.324ZM142.136 29.572V30.388H146.708V29.572H142.136ZM142.136 28.192V28.984H146.708V28.192H142.136ZM141.356 27.58H147.524V31H141.356V27.58ZM140.72 24.352H148.16V25.912H147.32V25.036H141.524V25.912H140.72V24.352ZM140.972 26.176H147.872V26.848H140.972V26.176ZM140.516 31.72H148.376V32.428H140.516V31.72ZM154.952 24.748C153.908 26.08 151.868 27.652 149.768 28.672C149.66 28.456 149.42 28.12 149.228 27.928C151.364 26.956 153.44 25.312 154.436 23.896H155.36C156.704 25.504 158.876 27.016 160.808 27.784C160.592 28.012 160.376 28.324 160.22 28.588C158.336 27.712 156.128 26.152 154.952 24.748ZM152.588 27.016H157.508V27.832H152.588V27.016ZM150.992 28.912H154.352V33.028H150.992V32.224H153.524V29.704H150.992V28.912ZM155.384 28.9H158.948V29.704H156.236V34.984H155.384V28.9ZM158.66 28.9H159.536V32.668C159.536 33.112 159.44 33.376 159.092 33.508C158.756 33.652 158.192 33.664 157.28 33.664C157.256 33.412 157.124 33.064 157.016 32.836C157.688 32.86 158.264 32.86 158.444 32.848C158.612 32.836 158.66 32.8 158.66 32.644V28.9ZM150.62 28.912H151.436V34.048H150.62V28.912ZM167.756 25.816C167.6 27.064 167.36 28.468 166.988 29.752C166.256 32.212 165.296 33.484 164.192 33.484C163.112 33.484 162.044 32.26 162.044 30.268C162.044 27.664 164.36 25.396 167.3 25.396C170.108 25.396 171.896 27.376 171.896 29.812C171.896 32.32 170.24 34 167.384 34.372L166.832 33.484C167.216 33.448 167.576 33.4 167.864 33.34C169.4 32.992 170.912 31.84 170.912 29.764C170.912 27.844 169.58 26.26 167.276 26.26C164.636 26.26 162.992 28.432 162.992 30.196C162.992 31.708 163.676 32.38 164.216 32.38C164.78 32.38 165.428 31.564 166.04 29.536C166.388 28.396 166.64 27.04 166.76 25.792L167.756 25.816ZM174.788 33.328H183.26V34.216H174.788V33.328ZM178.472 23.992H179.396V33.832H178.472V23.992ZM174.344 29.98H175.256V34.972H174.344V29.98ZM182.78 29.98H183.704V34.936H182.78V29.98ZM174.812 25.072H175.7V28.336H182.288V25.072H183.224V29.212H174.812V25.072ZM186.164 33.652C188.252 33.604 191.6 33.484 194.72 33.34L194.684 34.168C191.66 34.324 188.408 34.468 186.284 34.54L186.164 33.652ZM186.056 29.944H196.004V30.796H186.056V29.944ZM188.108 27.652H193.844V28.492H188.108V27.652ZM189.344 30.484L190.352 30.772C189.8 31.924 189.104 33.328 188.516 34.228L187.712 33.964C188.276 33.028 188.984 31.54 189.344 30.484ZM192.2 31.756L192.968 31.348C194.072 32.296 195.248 33.592 195.812 34.504L194.996 34.996C194.456 34.096 193.268 32.716 192.2 31.756ZM190.952 24.808C189.968 26.272 188 27.916 185.96 28.936C185.852 28.72 185.624 28.396 185.432 28.204C187.496 27.22 189.5 25.48 190.436 23.944H191.36C192.632 25.72 194.732 27.292 196.64 28.072C196.424 28.288 196.208 28.612 196.052 28.876C194.18 27.976 192.068 26.368 190.952 24.808ZM199.676 25.636C199.616 25.912 199.58 26.488 199.568 26.8C199.556 27.544 199.568 28.648 199.652 29.632C199.856 31.636 200.432 32.968 201.296 32.968C201.908 32.968 202.472 31.732 202.784 30.532L203.54 31.384C202.808 33.412 202.088 34.108 201.272 34.108C200.132 34.108 199.052 32.98 198.716 29.872C198.608 28.84 198.584 27.376 198.584 26.68C198.584 26.404 198.584 25.888 198.512 25.612L199.676 25.636ZM205.916 25.96C206.996 27.352 207.86 29.908 208.04 31.936L207.068 32.32C206.864 30.16 206.132 27.688 204.992 26.284L205.916 25.96Z" fill="black"/>
<path d="M160.917 57.723C162.301 57.723 163.633 57.9551 164.912 58.4194C166.199 58.8836 167.347 59.6238 168.354 60.6399C169.37 61.656 170.172 63.005 170.759 64.6868C171.354 66.3598 171.656 68.4139 171.665 70.8491C171.665 73.1353 171.407 75.1763 170.89 76.9719C170.382 78.7589 169.65 80.2786 168.696 81.5312C167.741 82.7839 166.589 83.7386 165.24 84.3956C163.891 85.0438 162.384 85.3679 160.72 85.3679C158.924 85.3679 157.339 85.0219 155.964 84.3299C154.589 83.6291 153.48 82.6787 152.64 81.4787C151.807 80.2699 151.304 78.9122 151.129 77.4055H156.739C156.958 78.3866 157.418 79.1487 158.119 79.6918C158.819 80.2261 159.687 80.4933 160.72 80.4933C162.472 80.4933 163.804 79.7312 164.714 78.207C165.625 76.6741 166.085 74.5762 166.094 71.9134H165.91C165.507 72.7017 164.964 73.3806 164.281 73.9499C163.598 74.5105 162.814 74.9441 161.929 75.2507C161.053 75.5573 160.12 75.7106 159.13 75.7106C157.545 75.7106 156.13 75.3383 154.886 74.5938C153.643 73.8492 152.661 72.8243 151.943 71.5192C151.225 70.214 150.866 68.7249 150.866 67.0518C150.857 65.2474 151.273 63.64 152.114 62.2298C152.955 60.8195 154.129 59.7158 155.635 58.9187C157.151 58.1128 158.911 57.7143 160.917 57.723ZM160.957 62.1903C160.072 62.1903 159.284 62.4006 158.592 62.821C157.908 63.2415 157.365 63.8065 156.962 64.516C156.568 65.2255 156.375 66.0182 156.384 66.8942C156.384 67.7789 156.577 68.576 156.962 69.2855C157.357 69.9863 157.891 70.5469 158.565 70.9673C159.249 71.379 160.028 71.5849 160.904 71.5849C161.561 71.5849 162.17 71.4622 162.73 71.217C163.291 70.9717 163.777 70.6345 164.189 70.2053C164.609 69.7673 164.938 69.2636 165.174 68.6942C165.411 68.1249 165.529 67.5205 165.529 66.881C165.52 66.0314 165.319 65.2518 164.925 64.5423C164.531 63.8327 163.987 63.2634 163.295 62.8342C162.603 62.4049 161.824 62.1903 160.957 62.1903ZM180.389 85L191.544 62.9261V62.7422H178.549V58.0909H197.43V62.8079L186.262 85H180.389Z" fill="black"/>
<path d="M168.112 99.736H175.972V109.78H175.024V100.648H169.036V109.828H168.112V99.736ZM168.724 103.9H175.42V104.788H168.724V103.9ZM168.712 108.148H175.444V109.048H168.712V108.148Z" fill="black"/>
<path d="M286.182 81.0455V80.2727C286.197 77.6212 286.432 75.5076 286.886 73.9318C287.356 72.3561 288.038 71.0833 288.932 70.1136C289.826 69.1439 290.902 68.2652 292.159 67.4773C293.098 66.8712 293.939 66.2424 294.682 65.5909C295.424 64.9394 296.015 64.2197 296.455 63.4318C296.894 62.6288 297.114 61.7348 297.114 60.75C297.114 59.7045 296.864 58.7879 296.364 58C295.864 57.2121 295.189 56.6061 294.341 56.1818C293.508 55.7576 292.583 55.5455 291.568 55.5455C290.583 55.5455 289.652 55.7651 288.773 56.2045C287.894 56.6288 287.174 57.2652 286.614 58.1136C286.053 58.947 285.75 59.9848 285.705 61.2273H276.432C276.508 58.197 277.235 55.697 278.614 53.7273C279.992 51.7424 281.818 50.2652 284.091 49.2955C286.364 48.3106 288.871 47.8182 291.614 47.8182C294.629 47.8182 297.295 48.3182 299.614 49.3182C301.932 50.303 303.75 51.7348 305.068 53.6136C306.386 55.4924 307.045 57.7576 307.045 60.4091C307.045 62.1818 306.75 63.7576 306.159 65.1364C305.583 66.5 304.773 67.7121 303.727 68.7727C302.682 69.8182 301.447 70.7652 300.023 71.6136C298.826 72.3258 297.841 73.0682 297.068 73.8409C296.311 74.6136 295.742 75.5076 295.364 76.5227C295 77.5379 294.811 78.7879 294.795 80.2727V81.0455H286.182ZM290.682 95.5909C289.167 95.5909 287.871 95.0606 286.795 94C285.735 92.9242 285.212 91.6364 285.227 90.1364C285.212 88.6515 285.735 87.3788 286.795 86.3182C287.871 85.2576 289.167 84.7273 290.682 84.7273C292.121 84.7273 293.386 85.2576 294.477 86.3182C295.568 87.3788 296.121 88.6515 296.136 90.1364C296.121 91.1364 295.856 92.053 295.341 92.8864C294.841 93.7045 294.182 94.3636 293.364 94.8636C292.545 95.3485 291.652 95.5909 290.682 95.5909Z" fill="white"/>
<path d="M143.788 1.782C143.761 1.998 143.734 2.376 143.725 2.592C143.626 6.165 142.78 7.992 140.791 9.405L139.738 8.559C140.116 8.352 140.566 8.055 140.926 7.686C142.105 6.516 142.519 4.986 142.528 2.61C142.528 2.412 142.492 1.998 142.456 1.782H143.788ZM146.839 3.717C146.812 3.861 146.785 4.086 146.785 4.185C146.749 5.166 146.632 7.677 146.245 8.595C146.056 9.045 145.705 9.288 145.093 9.288C144.571 9.288 144.04 9.243 143.599 9.207L143.455 8.01C143.905 8.082 144.364 8.136 144.724 8.136C145.012 8.136 145.138 8.037 145.228 7.812C145.489 7.245 145.615 5.445 145.615 4.473H141.223C140.917 4.473 140.413 4.482 140.035 4.518V3.33C140.413 3.375 140.872 3.393 141.214 3.393H145.381C145.615 3.393 145.849 3.375 146.065 3.33L146.839 3.717ZM149.755 8.649C149.854 8.424 149.872 8.271 149.872 8.064C149.872 7.38 149.872 4.185 149.872 3.177C149.872 2.844 149.818 2.412 149.764 2.16H151.177C151.132 2.502 151.096 2.835 151.096 3.177C151.096 4.176 151.096 7.173 151.096 7.857C152.563 7.443 154.57 6.291 155.722 4.878L156.361 5.904C155.128 7.371 153.256 8.451 151.132 9.144C151.015 9.18 150.817 9.243 150.601 9.387L149.755 8.649ZM159.169 2.16C159.79 2.583 160.96 3.519 161.491 4.068L160.573 5.004C160.105 4.5 158.971 3.519 158.314 3.069L159.169 2.16ZM158.035 8.154C159.448 7.956 160.609 7.497 161.482 6.984C163.021 6.066 164.191 4.698 164.767 3.483L165.46 4.743C164.785 5.967 163.588 7.209 162.139 8.082C161.221 8.631 160.06 9.126 158.8 9.342L158.035 8.154ZM173.011 1.611C173.236 1.944 173.551 2.511 173.722 2.844L173.002 3.15C172.813 2.79 172.534 2.25 172.291 1.908L173.011 1.611ZM174.073 1.206C174.307 1.539 174.64 2.115 174.802 2.43L174.082 2.736C173.893 2.358 173.605 1.836 173.362 1.494L174.073 1.206ZM169.636 5.004C170.743 5.643 172.417 6.795 173.245 7.461L172.39 8.478C171.598 7.74 169.897 6.489 168.844 5.823L169.636 5.004ZM173.875 3.474C173.776 3.645 173.659 3.897 173.578 4.122C173.299 4.95 172.75 6.102 171.949 7.101C171.103 8.154 169.942 9.162 168.223 9.81L167.179 8.91C169.06 8.325 170.14 7.38 170.905 6.48C171.517 5.76 172.075 4.734 172.246 4.032H169.195L169.618 3.015H172.174C172.453 3.015 172.759 2.97 172.957 2.907L173.875 3.474ZM170.896 2.088C170.68 2.403 170.455 2.817 170.347 3.006C169.735 4.095 168.583 5.472 167.296 6.363L166.324 5.616C167.899 4.644 168.736 3.402 169.186 2.628C169.321 2.403 169.519 1.989 169.6 1.683L170.896 2.088ZM175.819 4.833C176.152 4.86 176.8 4.896 177.268 4.896C178.33 4.896 181.3 4.896 182.101 4.896C182.524 4.896 182.92 4.851 183.163 4.833V6.255C182.947 6.246 182.488 6.201 182.11 6.201C181.291 6.201 178.33 6.201 177.268 6.201C176.764 6.201 176.161 6.228 175.819 6.255V4.833ZM187.852 4.788C188.959 5.427 190.624 6.579 191.461 7.245L190.597 8.271C189.814 7.533 188.104 6.273 187.051 5.607L187.852 4.788ZM192.091 3.258C191.983 3.429 191.866 3.681 191.785 3.906C191.515 4.734 190.966 5.886 190.156 6.885C189.31 7.938 188.158 8.946 186.439 9.594L185.395 8.694C187.276 8.109 188.347 7.164 189.121 6.264C189.724 5.553 190.282 4.518 190.453 3.816H187.411L187.825 2.799H190.39C190.669 2.799 190.966 2.754 191.173 2.691L192.091 3.258ZM189.112 1.872C188.896 2.187 188.662 2.601 188.554 2.79C187.951 3.879 186.799 5.256 185.503 6.147L184.54 5.4C186.115 4.428 186.943 3.195 187.402 2.412C187.537 2.196 187.726 1.782 187.807 1.467L189.112 1.872ZM193.558 5.508C195.169 5.094 196.483 4.509 197.491 3.888C198.409 3.321 199.435 2.421 200.02 1.71L200.992 2.628C200.173 3.456 199.075 4.302 198.013 4.941C196.996 5.544 195.538 6.219 194.116 6.642L193.558 5.508ZM197.302 4.473L198.58 4.167V8.226C198.58 8.622 198.598 9.18 198.661 9.405H197.23C197.266 9.189 197.302 8.622 197.302 8.226V4.473ZM209.227 2.403C209.227 2.691 209.461 2.925 209.749 2.925C210.037 2.925 210.271 2.691 210.271 2.403C210.271 2.115 210.037 1.881 209.749 1.881C209.461 1.881 209.227 2.115 209.227 2.403ZM208.669 2.403C208.669 1.809 209.155 1.323 209.749 1.323C210.343 1.323 210.829 1.809 210.829 2.403C210.829 2.997 210.343 3.483 209.749 3.483C209.155 3.483 208.669 2.997 208.669 2.403ZM209.767 3.114C209.677 3.285 209.614 3.546 209.569 3.735C209.362 4.617 208.966 6.021 208.21 7.02C207.4 8.1 206.203 8.991 204.592 9.504L203.611 8.424C205.402 8.01 206.419 7.227 207.139 6.318C207.742 5.571 208.084 4.545 208.201 3.771C207.652 3.771 204.682 3.771 204.007 3.771C203.593 3.771 203.17 3.798 202.936 3.816V2.538C203.206 2.574 203.71 2.619 204.007 2.619C204.682 2.619 207.67 2.619 208.174 2.619C208.354 2.619 208.642 2.61 208.876 2.547L209.767 3.114Z" fill="white"/>
<path d="M272.943 9.09268C272.63 9.09268 272.351 9.03835 272.106 8.92969C271.861 8.81889 271.667 8.65589 271.524 8.4407C271.384 8.22337 271.313 7.95277 271.313 7.62891C271.313 7.35618 271.363 7.12713 271.463 6.94176C271.564 6.75639 271.7 6.60724 271.873 6.49432C272.045 6.38139 272.241 6.29616 272.461 6.23864C272.682 6.18111 272.914 6.14062 273.157 6.11719C273.443 6.08736 273.673 6.05966 273.848 6.03409C274.022 6.00639 274.149 5.96591 274.228 5.91264C274.307 5.85937 274.346 5.78054 274.346 5.67614V5.65696C274.346 5.45455 274.282 5.29794 274.154 5.18714C274.029 5.07635 273.85 5.02095 273.618 5.02095C273.373 5.02095 273.178 5.07528 273.033 5.18395C272.888 5.29048 272.792 5.42472 272.745 5.58665L271.486 5.48438C271.55 5.18608 271.675 4.92827 271.863 4.71094C272.05 4.49148 272.292 4.32315 272.588 4.20597C272.887 4.08665 273.232 4.02699 273.624 4.02699C273.897 4.02699 274.158 4.05895 274.407 4.12287C274.658 4.18679 274.881 4.28587 275.075 4.4201C275.271 4.55433 275.425 4.72692 275.538 4.93786C275.651 5.14666 275.708 5.39702 275.708 5.68892V9H274.417V8.31925H274.378C274.299 8.47266 274.194 8.60795 274.062 8.72514C273.93 8.8402 273.771 8.93075 273.586 8.9968C273.4 9.06072 273.186 9.09268 272.943 9.09268ZM273.333 8.15305C273.533 8.15305 273.71 8.11364 273.864 8.0348C274.017 7.95384 274.137 7.84517 274.225 7.70881C274.312 7.57244 274.356 7.41797 274.356 7.24538V6.72443C274.313 6.75213 274.255 6.7777 274.18 6.80114C274.108 6.82244 274.026 6.84268 273.934 6.86186C273.842 6.87891 273.751 6.89489 273.659 6.9098C273.567 6.92259 273.484 6.9343 273.41 6.94496C273.25 6.96839 273.11 7.00568 272.991 7.05682C272.872 7.10795 272.779 7.1772 272.713 7.26456C272.647 7.34979 272.614 7.45632 272.614 7.58416C272.614 7.76953 272.681 7.91122 272.815 8.00923C272.952 8.10511 273.124 8.15305 273.333 8.15305ZM278.126 6.16193V9H276.764V4.09091H278.062V4.95703H278.119C278.228 4.67152 278.41 4.44567 278.666 4.27947C278.921 4.11115 279.231 4.02699 279.596 4.02699C279.937 4.02699 280.234 4.10156 280.487 4.25071C280.741 4.39986 280.938 4.61293 281.079 4.88991C281.219 5.16477 281.29 5.4929 281.29 5.87429V9H279.928V6.11719C279.93 5.81676 279.854 5.58239 279.698 5.41406C279.542 5.24361 279.328 5.15838 279.056 5.15838C278.872 5.15838 278.71 5.1978 278.57 5.27663C278.431 5.35547 278.323 5.47053 278.244 5.6218C278.167 5.77095 278.128 5.95099 278.126 6.16193ZM284.172 9.0799C283.799 9.0799 283.461 8.98402 283.158 8.79226C282.858 8.59837 282.619 8.31392 282.443 7.93892C282.268 7.56179 282.18 7.09943 282.18 6.55185C282.18 5.98935 282.271 5.52166 282.452 5.14879C282.633 4.77379 282.874 4.49361 283.174 4.30824C283.477 4.12074 283.808 4.02699 284.168 4.02699C284.443 4.02699 284.672 4.07386 284.856 4.16761C285.041 4.25923 285.19 4.37429 285.303 4.51278C285.418 4.64915 285.505 4.78338 285.565 4.91548H285.607V2.45455H286.965V9H285.623V8.21378H285.565C285.501 8.35014 285.411 8.48544 285.293 8.61967C285.178 8.75178 285.028 8.86151 284.843 8.94886C284.66 9.03622 284.436 9.0799 284.172 9.0799ZM284.603 7.99645C284.823 7.99645 285.008 7.93679 285.159 7.81747C285.313 7.69602 285.43 7.52663 285.511 7.3093C285.594 7.09197 285.635 6.83736 285.635 6.54545C285.635 6.25355 285.595 6 285.514 5.7848C285.433 5.5696 285.316 5.40341 285.162 5.28622C285.009 5.16903 284.823 5.11044 284.603 5.11044C284.379 5.11044 284.191 5.17116 284.037 5.29261C283.884 5.41406 283.768 5.58239 283.689 5.79759C283.61 6.01278 283.571 6.26207 283.571 6.54545C283.571 6.83097 283.61 7.08345 283.689 7.30291C283.77 7.52024 283.886 7.6907 284.037 7.81428C284.191 7.93572 284.379 7.99645 284.603 7.99645ZM290.167 9V4.09091H291.465V4.95703H291.522C291.625 4.66939 291.795 4.44247 292.034 4.27628C292.272 4.11009 292.558 4.02699 292.89 4.02699C293.227 4.02699 293.514 4.11115 293.75 4.27947C293.987 4.44567 294.144 4.67152 294.223 4.95703H294.274C294.374 4.67578 294.555 4.45099 294.818 4.28267C295.082 4.11222 295.394 4.02699 295.754 4.02699C296.212 4.02699 296.584 4.17294 296.869 4.46484C297.157 4.75462 297.301 5.16584 297.301 5.69851V9H295.943V5.96697C295.943 5.69425 295.87 5.4897 295.725 5.35334C295.58 5.21697 295.399 5.14879 295.182 5.14879C294.935 5.14879 294.742 5.22763 294.603 5.3853C294.465 5.54084 294.396 5.74645 294.396 6.00213V9H293.076V5.93821C293.076 5.69744 293.006 5.50568 292.868 5.36293C292.732 5.22017 292.552 5.14879 292.328 5.14879C292.177 5.14879 292.04 5.18714 291.919 5.26385C291.799 5.33842 291.705 5.44389 291.634 5.58026C291.564 5.71449 291.529 5.87216 291.529 6.05327V9H290.167ZM300.594 9.09588C300.098 9.09588 299.669 8.99041 299.306 8.77947C298.946 8.56641 298.668 8.27024 298.472 7.89098C298.276 7.50959 298.178 7.06747 298.178 6.56463C298.178 6.05753 298.276 5.61435 298.472 5.23509C298.668 4.85369 298.946 4.55753 299.306 4.34659C299.669 4.13352 300.098 4.02699 300.594 4.02699C301.091 4.02699 301.519 4.13352 301.879 4.34659C302.241 4.55753 302.521 4.85369 302.717 5.23509C302.913 5.61435 303.011 6.05753 303.011 6.56463C303.011 7.06747 302.913 7.50959 302.717 7.89098C302.521 8.27024 302.241 8.56641 301.879 8.77947C301.519 8.99041 301.091 9.09588 300.594 9.09588ZM300.601 8.04119C300.827 8.04119 301.015 7.97727 301.166 7.84943C301.318 7.71946 301.432 7.54261 301.508 7.31889C301.587 7.09517 301.627 6.84055 301.627 6.55504C301.627 6.26953 301.587 6.01491 301.508 5.79119C301.432 5.56747 301.318 5.39062 301.166 5.26065C301.015 5.13068 300.827 5.0657 300.601 5.0657C300.373 5.0657 300.181 5.13068 300.025 5.26065C299.872 5.39062 299.756 5.56747 299.677 5.79119C299.6 6.01491 299.562 6.26953 299.562 6.55504C299.562 6.84055 299.6 7.09517 299.677 7.31889C299.756 7.54261 299.872 7.71946 300.025 7.84943C300.181 7.97727 300.373 8.04119 300.601 8.04119ZM303.896 9V4.09091H305.216V4.94744H305.267C305.356 4.64276 305.507 4.41264 305.718 4.2571C305.929 4.09943 306.171 4.0206 306.446 4.0206C306.514 4.0206 306.588 4.02486 306.667 4.03338C306.746 4.0419 306.815 4.05362 306.875 4.06854V5.27663C306.811 5.25746 306.722 5.24041 306.609 5.2255C306.496 5.21058 306.393 5.20312 306.299 5.20312C306.099 5.20312 305.92 5.2468 305.762 5.33416C305.607 5.41939 305.483 5.53871 305.392 5.69212C305.302 5.84553 305.257 6.02237 305.257 6.22266V9H303.896ZM309.587 9.09588C309.082 9.09588 308.648 8.99361 308.283 8.78906C307.921 8.58239 307.642 8.29048 307.446 7.91335C307.25 7.53409 307.152 7.08558 307.152 6.56783C307.152 6.06286 307.25 5.61967 307.446 5.23828C307.642 4.85689 307.918 4.55966 308.274 4.34659C308.632 4.13352 309.051 4.02699 309.533 4.02699C309.857 4.02699 310.158 4.07919 310.437 4.18359C310.719 4.28587 310.964 4.44034 311.172 4.64702C311.383 4.85369 311.547 5.11364 311.665 5.42685C311.782 5.73793 311.84 6.10227 311.84 6.51989V6.89382H307.695V6.05007H310.559C310.559 5.85405 310.516 5.6804 310.431 5.52912C310.346 5.37784 310.227 5.25959 310.076 5.17436C309.927 5.087 309.753 5.04332 309.555 5.04332C309.349 5.04332 309.165 5.09126 309.006 5.18714C308.848 5.28089 308.724 5.40767 308.635 5.56747C308.545 5.72514 308.499 5.90092 308.497 6.09482V6.89702C308.497 7.13991 308.542 7.34979 308.632 7.52663C308.723 7.70348 308.852 7.83984 309.018 7.93572C309.184 8.03161 309.382 8.07955 309.61 8.07955C309.761 8.07955 309.899 8.05824 310.025 8.01562C310.151 7.97301 310.258 7.90909 310.348 7.82386C310.437 7.73864 310.506 7.63423 310.552 7.51065L311.812 7.59375C311.748 7.89631 311.617 8.16051 311.419 8.38636C311.222 8.61009 310.969 8.7848 310.658 8.91051C310.349 9.03409 309.992 9.09588 309.587 9.09588Z" fill="white"/>
<path d="M35.218 2.016C35.2 2.268 35.191 2.556 35.191 2.925C35.191 3.384 35.191 4.257 35.191 4.698C35.191 6.642 34.813 7.47 34.138 8.208C33.544 8.865 32.617 9.297 31.96 9.513L31.015 8.514C31.915 8.307 32.635 7.965 33.184 7.38C33.796 6.705 33.922 6.03 33.922 4.626C33.922 4.176 33.922 3.312 33.922 2.925C33.922 2.556 33.895 2.268 33.859 2.016H35.218ZM31.051 2.097C31.033 2.304 31.015 2.502 31.015 2.781C31.015 3.177 31.015 5.319 31.015 5.823C31.015 6.048 31.033 6.399 31.051 6.606H29.737C29.755 6.444 29.782 6.093 29.782 5.814C29.782 5.301 29.782 3.177 29.782 2.781C29.782 2.619 29.773 2.304 29.746 2.097H31.051ZM39.169 2.16C39.79 2.583 40.96 3.519 41.491 4.068L40.573 5.004C40.105 4.5 38.971 3.519 38.314 3.069L39.169 2.16ZM38.035 8.154C39.448 7.956 40.609 7.497 41.482 6.984C43.021 6.066 44.191 4.698 44.767 3.483L45.46 4.743C44.785 5.967 43.588 7.209 42.139 8.082C41.221 8.631 40.06 9.126 38.8 9.342L38.035 8.154ZM53.011 1.629C53.236 1.962 53.551 2.529 53.722 2.862L53.002 3.177C52.813 2.808 52.534 2.268 52.291 1.926L53.011 1.629ZM54.073 1.224C54.307 1.566 54.64 2.133 54.802 2.448L54.082 2.754C53.893 2.385 53.605 1.854 53.362 1.521L54.073 1.224ZM53.812 3.609C53.713 3.789 53.587 4.032 53.515 4.257C53.272 5.058 52.759 6.264 51.949 7.263C51.094 8.307 50.005 9.135 48.313 9.801L47.251 8.856C49.096 8.298 50.095 7.515 50.878 6.624C51.49 5.922 52.012 4.842 52.156 4.176H49.123L49.537 3.15C49.942 3.15 51.823 3.15 52.111 3.15C52.39 3.15 52.687 3.114 52.894 3.042L53.812 3.609ZM50.878 2.187C50.671 2.502 50.437 2.916 50.329 3.105C49.726 4.194 48.646 5.463 47.359 6.345L46.342 5.598C47.926 4.635 48.709 3.474 49.159 2.7C49.294 2.484 49.483 2.061 49.564 1.755L50.878 2.187ZM58.852 4.788C59.959 5.427 61.624 6.579 62.461 7.245L61.597 8.271C60.814 7.533 59.104 6.273 58.051 5.607L58.852 4.788ZM63.091 3.258C62.983 3.429 62.866 3.681 62.785 3.906C62.515 4.734 61.966 5.886 61.156 6.885C60.31 7.938 59.158 8.946 57.439 9.594L56.395 8.694C58.276 8.109 59.347 7.164 60.121 6.264C60.724 5.553 61.282 4.518 61.453 3.816H58.411L58.825 2.799H61.39C61.669 2.799 61.966 2.754 62.173 2.691L63.091 3.258ZM60.112 1.872C59.896 2.187 59.662 2.601 59.554 2.79C58.951 3.879 57.799 5.256 56.503 6.147L55.54 5.4C57.115 4.428 57.943 3.195 58.402 2.412C58.537 2.196 58.726 1.782 58.807 1.467L60.112 1.872ZM64.558 5.508C66.169 5.094 67.483 4.509 68.491 3.888C69.409 3.321 70.435 2.421 71.02 1.71L71.992 2.628C71.173 3.456 70.075 4.302 69.013 4.941C67.996 5.544 66.538 6.219 65.116 6.642L64.558 5.508ZM68.302 4.473L69.58 4.167V8.226C69.58 8.622 69.598 9.18 69.661 9.405H68.23C68.266 9.189 68.302 8.622 68.302 8.226V4.473ZM80.227 2.403C80.227 2.691 80.461 2.925 80.749 2.925C81.037 2.925 81.271 2.691 81.271 2.403C81.271 2.115 81.037 1.881 80.749 1.881C80.461 1.881 80.227 2.115 80.227 2.403ZM79.669 2.403C79.669 1.809 80.155 1.323 80.749 1.323C81.343 1.323 81.829 1.809 81.829 2.403C81.829 2.997 81.343 3.483 80.749 3.483C80.155 3.483 79.669 2.997 79.669 2.403ZM80.767 3.114C80.677 3.285 80.614 3.546 80.569 3.735C80.362 4.617 79.966 6.021 79.21 7.02C78.4 8.1 77.203 8.991 75.592 9.504L74.611 8.424C76.402 8.01 77.419 7.227 78.139 6.318C78.742 5.571 79.084 4.545 79.201 3.771C78.652 3.771 75.682 3.771 75.007 3.771C74.593 3.771 74.17 3.798 73.936 3.816V2.538C74.206 2.574 74.71 2.619 75.007 2.619C75.682 2.619 78.67 2.619 79.174 2.619C79.354 2.619 79.642 2.61 79.876 2.547L80.767 3.114Z" fill="white"/>
<defs>
<filter id="filter0_f_14_96" x="238" y="17" width="108" height="109" filterUnits="userSpaceOnUse" color-interpolation-filters="sRGB">
<feFlood flood-opacity="0" result="BackgroundImageFix"/>
<feBlend mode="normal" in="SourceGraphic" in2="BackgroundImageFix" result="shape"/>
<feGaussianBlur stdDeviation="1" result="effect1_foregroundBlur_14_96"/>
</filter>
<filter id="filter1_f_14_96" x="0" y="17" width="108" height="109" filterUnits="userSpaceOnUse" color-interpolation-filters="sRGB">
<feFlood flood-opacity="0" result="BackgroundImageFix"/>
<feBlend mode="normal" in="SourceGraphic" in2="BackgroundImageFix" result="shape"/>
<feGaussianBlur stdDeviation="1" result="effect1_foregroundBlur_14_96"/>
</filter>
<filter id="filter2_f_14_96" x="119" y="17" width="108" height="109" filterUnits="userSpaceOnUse" color-interpolation-filters="sRGB">
<feFlood flood-opacity="0" result="BackgroundImageFix"/>
<feBlend mode="normal" in="SourceGraphic" in2="BackgroundImageFix" result="shape"/>
<feGaussianBlur stdDeviation="1" result="effect1_foregroundBlur_14_96"/>
</filter>
</defs>
</svg>
