<svg width="364" height="187" viewBox="0 0 364 187" fill="none" xmlns="http://www.w3.org/2000/svg">
<path d="M285.29 26.6473L347.891 39.9537C358.425 42.1928 365.15 52.5476 362.911 63.0818L349.396 126.661C347.157 137.196 336.803 143.92 326.268 141.681L263.667 128.375C253.133 126.136 246.408 115.781 248.647 105.247L262.162 41.6669C264.401 31.1327 274.755 24.4082 285.29 26.6473Z" fill="url(#paint0_linear_117_110)" stroke="#595959"/>
<path d="M85.7398 14.1298L149.389 7.43995C160.1 6.31423 169.695 14.0843 170.821 24.7948L177.615 89.4388C178.741 100.149 170.971 109.745 160.26 110.87L96.6108 117.56C85.9002 118.686 76.305 110.916 75.1793 100.205L68.3849 35.5613C67.2592 24.8507 75.0293 15.2555 85.7398 14.1298Z" fill="url(#paint1_linear_117_110)" stroke="#2D2D2D"/>
<path d="M195.814 6.58783L259.463 13.2777C270.174 14.4034 277.944 23.9986 276.818 34.7091L270.024 99.3531C268.898 110.064 259.303 117.834 248.592 116.708L184.943 110.018C174.232 108.892 166.462 99.2972 167.588 88.5866L174.382 23.9427C175.508 13.2321 185.103 5.46211 195.814 6.58783Z" fill="url(#paint2_linear_117_110)" stroke="#595959"/>
<path d="M86.5297 30.5118L90.8092 30.062L90.9559 31.4583L86.6765 31.9081L86.5297 30.5118ZM87.2943 36.4182L91.6125 35.9644L91.7566 37.3348L87.4384 37.7887L87.2943 36.4182ZM88.3327 27.891C87.7568 29.128 86.7264 30.7656 85.5368 31.8841C85.2993 31.4908 84.849 30.9368 84.5163 30.6319C85.7358 29.5495 86.8752 27.7043 87.368 26.4238L88.8419 26.2689C89.8767 27.5326 91.3455 28.9468 92.6825 29.6037C92.4001 30.0255 92.0979 30.6324 91.8896 31.138C90.6308 30.3553 89.162 28.9411 88.3327 27.891ZM86.1251 33.1294L91.8914 32.5234L92.4567 37.9018L90.9699 38.058L90.5486 34.0501L87.6914 34.3504L88.118 38.4101L86.6959 38.5595L86.1251 33.1294ZM81.8284 26.823L83.226 27.1859C82.7992 28.2242 82.3254 29.4374 81.8973 30.2144L80.8154 29.8706C81.2007 29.0589 81.6262 27.7593 81.8284 26.823ZM83.4756 28.1924L84.7894 28.6294C84.0148 30.2141 82.9367 32.1443 82.0723 33.3724L81.1273 32.9619C81.9603 31.6849 82.95 29.6593 83.4756 28.1924ZM80.1594 30.0964L80.7849 28.9588C81.5327 29.4815 82.4199 30.2118 82.8185 30.7712L82.1433 32.0578C81.7678 31.4698 80.884 30.6477 80.1594 30.0964ZM83.4125 31.3231L84.389 30.7891C84.9843 31.6023 85.5951 32.6884 85.8291 33.422L84.7818 34.0288C84.5608 33.2939 83.9975 32.1635 83.4125 31.3231ZM80.4223 32.7223C81.6077 32.5585 83.3463 32.3104 85.0448 32.0535L85.1609 33.2831C83.5829 33.5666 81.9389 33.8439 80.6943 34.0663L80.4223 32.7223ZM84.0353 34.5125L85.0846 34.0492C85.4853 34.7522 85.9233 35.6865 86.1335 36.318L85.0379 36.8384C84.8407 36.2056 84.3999 35.2454 84.0353 34.5125ZM81.178 34.5644L82.4811 34.6497C82.4823 35.9044 82.3337 37.2272 82.0457 38.0941C81.7566 37.9545 81.1462 37.7442 80.8094 37.6488C81.1042 36.8466 81.1901 35.6742 81.178 34.5644ZM82.4983 33.1969L83.8559 33.0542L84.4619 38.8205L83.1044 38.9632L82.4983 33.1969ZM94.879 25.5036L96.3141 25.3528L97.5805 37.4024L96.1455 37.5533L94.879 25.5036ZM93.3724 29.9495L98.6733 29.3923L98.8254 30.8404L93.5246 31.3975L93.3724 29.9495ZM95.1347 30.5485L96.0315 30.8726C95.7999 32.6485 95.2347 34.9824 94.5119 36.3132C94.3194 35.8498 93.9112 35.1999 93.6323 34.7848C94.3075 33.7465 94.9072 31.8665 95.1347 30.5485ZM96.8943 31.1218C97.3045 31.4185 98.7163 32.7864 99.0387 33.1185L98.2098 34.4344C97.7961 33.7328 96.7791 32.3887 96.2471 31.8042L96.8943 31.1218ZM93.0055 26.7071L94.0616 26.3085C94.497 27.217 94.8847 28.418 95.0349 29.2257L93.9039 29.6583C93.7925 28.8465 93.415 27.6183 93.0055 26.7071ZM97.2353 25.9096L98.571 26.0567C98.3449 27.1393 98.0862 28.4083 97.8431 29.2051L96.8449 29.0355C97.0165 28.1809 97.1896 26.8425 97.2353 25.9096ZM102.046 24.6719L103.507 24.5183L104.783 36.6585L103.322 36.812L102.046 24.6719ZM99.0313 33.1716L105.552 31.2837L105.935 32.6943L99.4291 34.5938L99.0313 33.1716ZM99.1037 26.772L99.7551 25.6317C100.525 25.9951 101.511 26.5451 101.988 26.9786L101.297 28.2407C100.856 27.7773 99.8766 27.1613 99.1037 26.772ZM98.8643 30.0912L99.4715 28.9032C100.263 29.2252 101.298 29.7439 101.814 30.1733L101.167 31.4831C100.678 31.0509 99.6604 30.452 98.8643 30.0912ZM107.417 24.9048L116.441 23.9563L117.618 35.1526L115.95 35.3279L114.938 25.696L109.185 26.3007L110.198 35.9455L108.595 36.114L107.417 24.9048ZM108.973 29.1333L115.928 28.4023L116.09 29.9408L109.134 30.6719L108.973 29.1333ZM109.428 33.5951L116.397 32.8627L116.562 34.4271L109.593 35.1595L109.428 33.5951Z" fill="#9E1C1C"/>
<path d="M94.8338 71.9591L96.5823 88.5947L93.5687 88.9115L92.1284 75.2082L92.031 75.2184L88.4014 78.113L88.1111 75.3512L91.9665 72.2604L94.8338 71.9591ZM106.989 87.8213C105.651 87.9619 104.467 87.7441 103.438 87.1679C102.413 86.5858 101.576 85.68 100.926 84.4507C100.282 83.2153 99.8644 81.6906 99.6737 79.8765C99.4885 78.0618 99.5835 76.4915 99.9588 75.1654C100.339 73.8333 100.97 72.7814 101.853 72.0098C102.741 71.2375 103.851 70.7814 105.183 70.6414C106.515 70.5014 107.696 70.7168 108.725 71.2875C109.754 71.8582 110.59 72.7559 111.233 73.9804C111.882 75.2043 112.302 76.7206 112.492 78.5293C112.683 80.3488 112.589 81.93 112.21 83.2729C111.836 84.6098 111.205 85.6671 110.318 86.4448C109.436 87.2219 108.326 87.6807 106.989 87.8213ZM106.721 85.2788C107.761 85.1695 108.528 84.5716 109.021 83.4849C109.52 82.3923 109.664 80.8468 109.454 78.8486C109.315 77.5273 109.06 76.4317 108.689 75.5618C108.319 74.6919 107.858 74.0559 107.306 73.654C106.754 73.2466 106.134 73.0791 105.447 73.1514C104.412 73.2601 103.649 73.8605 103.156 74.9525C102.662 76.0392 102.517 77.5738 102.72 79.5564C102.854 80.8837 103.104 81.9853 103.47 82.8611C103.841 83.7365 104.302 84.3778 104.854 84.7852C105.406 85.1871 106.028 85.3517 106.721 85.2788ZM116.187 68.2872L132.154 66.6091L134.236 86.418L131.285 86.7281L129.494 69.687L119.315 70.7568L121.108 87.8208L118.272 88.1189L116.187 68.2872ZM118.94 75.7685L131.246 74.475L131.532 77.1971L119.226 78.4905L118.94 75.7685ZM119.746 83.6624L132.075 82.3666L132.366 85.1343L120.037 86.4302L119.746 83.6624Z" fill="#9E1C1C"/>
<path d="M98.3717 101.947C97.7614 102.011 97.208 101.963 96.7113 101.804C96.2175 101.645 95.814 101.393 95.5007 101.049C95.1875 100.705 94.9967 100.289 94.9284 99.8021L96.5219 99.6347C96.5606 99.8677 96.6599 100.064 96.8195 100.225C96.9789 100.382 97.1809 100.497 97.4255 100.568C97.6701 100.639 97.9379 100.66 98.2289 100.629C98.5397 100.597 98.8096 100.514 99.0384 100.381C99.267 100.246 99.4388 100.074 99.554 99.8644C99.6691 99.6552 99.7119 99.4236 99.6823 99.1697C99.6575 98.9066 99.5654 98.682 99.4059 98.496C99.2463 98.3099 99.0293 98.1742 98.7546 98.0888C98.4828 98.0031 98.1633 97.9796 97.796 98.0182L97.0289 98.0988L96.9015 96.8867L97.6686 96.8061C97.9709 96.7743 98.2296 96.6943 98.4446 96.566C98.6625 96.4374 98.8264 96.2717 98.9365 96.0687C99.0463 95.8629 99.0865 95.6344 99.0573 95.3833C99.0343 95.1372 98.9568 94.9297 98.8247 94.7607C98.6952 94.5886 98.5234 94.4624 98.3093 94.3821C98.098 94.3015 97.8568 94.2754 97.5855 94.3039C97.32 94.3318 97.0792 94.4057 96.8633 94.5255C96.6473 94.6453 96.4795 94.8015 96.3598 94.9941C96.2397 95.1838 96.1883 95.4006 96.2053 95.6445L94.6923 95.8035C94.6526 95.3163 94.7476 94.875 94.9774 94.4795C95.2097 94.0809 95.5411 93.7547 95.9715 93.5009C96.4015 93.2443 96.8977 93.0865 97.4599 93.0274C98.0391 92.9665 98.5535 93.0224 99.003 93.1952C99.455 93.3647 99.8174 93.6194 100.09 93.9593C100.363 94.2991 100.523 94.6894 100.569 95.1301C100.623 95.6186 100.522 96.0434 100.266 96.4046C100.012 96.7654 99.6565 97.0214 99.1982 97.1724L99.2053 97.2402C99.8245 97.2608 100.316 97.4377 100.679 97.7708C101.045 98.1009 101.256 98.5373 101.31 99.08C101.361 99.566 101.268 100.016 101.032 100.429C100.798 100.839 100.451 101.178 99.9902 101.447C99.5328 101.715 98.9933 101.882 98.3717 101.947ZM106.422 92.0156L112.521 91.3746L112.651 92.6158L106.553 93.2568L106.422 92.0156ZM106.258 94.3496L113.12 93.6284L113.253 94.8934L106.39 95.6147L106.258 94.3496ZM106.521 96.6266L113.276 95.9166L113.407 97.1697L106.653 97.8797L106.521 96.6266ZM108.592 90.4966L110 90.3485L110.46 94.7284L109.052 94.8764L108.592 90.4966ZM110.608 95.099L112.004 94.9523L112.523 99.8931C112.596 100.585 112.504 100.969 112.06 101.221C111.605 101.486 110.963 101.577 110.068 101.671C109.979 101.283 109.704 100.732 109.474 100.382C110.061 100.345 110.717 100.276 110.895 100.245C111.086 100.225 111.142 100.183 111.124 100.016L110.608 95.099ZM107.214 98.6291L108.291 97.8523C108.913 98.3781 109.628 99.0993 109.952 99.6565L108.799 100.502C108.513 99.9647 107.827 99.18 107.214 98.6291ZM102.678 91.8662L105.757 91.5425L106.615 99.7056L103.536 100.029L103.402 98.7522L105.144 98.5691L104.555 92.96L102.813 93.1431L102.678 91.8662ZM103.106 95.248L105.421 95.0046L105.553 96.2577L103.238 96.5011L103.106 95.248ZM102.01 91.9364L103.335 91.7972L104.304 101.022L102.98 101.162L102.01 91.9364ZM118.201 96.8589L121.471 96.5152L121.579 97.5416L118.309 97.8853L118.201 96.8589ZM117.932 95.1014L121.954 94.6787L122.436 99.2615L118.414 99.6842L118.303 98.634L120.989 98.3517L120.728 95.8694L118.042 96.1516L117.932 95.1014ZM117.347 95.1629L118.636 95.0274L119.182 100.219L117.893 100.354L117.347 95.1629ZM114.985 91.9724L117.98 91.6575L118.082 92.6242L115.086 92.939L114.985 91.9724ZM120.522 91.3903L123.542 91.073L123.643 92.0397L120.624 92.357L120.522 91.3903ZM122.783 89.4756L124.227 89.3238L125.179 98.3819C125.26 99.1577 125.149 99.5917 124.697 99.8805C124.244 100.169 123.555 100.266 122.528 100.374C122.426 99.9744 122.141 99.3286 121.91 98.9668C122.534 98.9374 123.261 98.8489 123.476 98.8264C123.691 98.8038 123.755 98.7247 123.733 98.5218L122.783 89.4756ZM114.93 90.301L118.701 89.9046L119.156 94.2367L115.385 94.6331L115.277 93.6067L117.712 93.3509L117.474 91.0833L115.039 91.3392L114.93 90.301ZM123.546 89.3953L123.655 90.4336L120.982 90.7146L121.224 93.0179L123.898 92.7369L124.005 93.7633L119.972 94.1872L119.513 89.8193L123.546 89.3953ZM114.106 90.3875L115.527 90.2382L116.657 100.991L115.237 101.14L114.106 90.3875ZM130.077 98.6145C129.662 98.6553 129.249 98.6259 128.838 98.5262C128.428 98.4236 128.047 98.228 127.697 97.9391C127.346 97.6475 127.05 97.243 126.807 96.7258C126.563 96.2058 126.401 95.5472 126.32 94.7502C126.242 94.0071 126.252 93.3363 126.349 92.7376C126.446 92.139 126.622 91.6235 126.876 91.1911C127.13 90.7559 127.455 90.4103 127.851 90.1545C128.25 89.8983 128.709 89.743 129.229 89.6883C129.774 89.631 130.269 89.6876 130.712 89.8581C131.159 90.0282 131.532 90.2862 131.831 90.6318C132.13 90.9746 132.335 91.3758 132.446 91.8355L130.899 91.998C130.785 91.673 130.594 91.4245 130.328 91.2525C130.064 91.0775 129.745 91.0095 129.372 91.0487C128.77 91.112 128.334 91.422 128.065 91.9789C127.797 92.5354 127.71 93.2701 127.803 94.183L127.863 94.1768C127.975 93.9136 128.132 93.6814 128.334 93.4802C128.535 93.2791 128.77 93.1159 129.036 92.9908C129.306 92.8625 129.596 92.782 129.907 92.7493C130.415 92.6959 130.884 92.7694 131.314 92.9699C131.746 93.1701 132.103 93.4711 132.386 93.8728C132.667 94.2716 132.836 94.7453 132.891 95.2937C132.953 95.8641 132.877 96.3906 132.662 96.8731C132.447 97.3527 132.119 97.7472 131.677 98.0564C131.235 98.3656 130.702 98.5517 130.077 98.6145ZM129.935 97.3439C130.243 97.3116 130.511 97.2078 130.738 97.0325C130.965 96.8572 131.136 96.635 131.251 96.3659C131.365 96.0967 131.405 95.8041 131.368 95.4879C131.339 95.1769 131.241 94.9029 131.076 94.666C130.914 94.4288 130.706 94.2493 130.45 94.1276C130.194 94.006 129.913 93.9613 129.605 93.9937C129.376 94.0177 129.167 94.084 128.978 94.1923C128.79 94.3007 128.63 94.4403 128.5 94.6111C128.369 94.7791 128.272 94.9693 128.208 95.1817C128.147 95.3909 128.128 95.61 128.149 95.8392C128.183 96.1412 128.283 96.4121 128.449 96.6518C128.614 96.8915 128.826 97.0749 129.085 97.202C129.344 97.329 129.627 97.3763 129.935 97.3439ZM135.564 92.1019L142.021 91.4233L142.168 92.8196L135.711 93.4982L135.564 92.1019ZM141.555 91.4722L143.059 91.3142C143.059 91.3142 143.094 91.757 143.1 91.9373C143.35 95.5791 143.357 97.0143 142.99 97.5475C142.735 97.9847 142.412 98.1272 141.966 98.2465C141.554 98.35 140.861 98.4109 140.154 98.461C140.086 98.0458 139.83 97.4453 139.525 97.0671C140.2 97.0565 140.821 97.0033 141.12 96.9719C141.335 96.9493 141.462 96.8997 141.58 96.7546C141.833 96.4142 141.824 95.0638 141.583 91.7348L141.555 91.4722ZM136.469 87.7355L138.068 88.0259C137.391 90.1965 136.137 92.271 134.758 93.6105C134.451 93.3291 133.77 92.8215 133.395 92.5833C134.794 91.4347 135.943 89.6247 136.469 87.7355ZM141.013 87.2337C141.925 88.6703 143.611 90.2547 145.029 91.1192C144.668 91.4708 144.181 92.1133 143.949 92.5479C142.47 91.4485 140.799 89.6695 139.664 87.9426L141.013 87.2337ZM137.743 92.2832L139.295 92.1201C139.35 94.8291 139.099 97.3773 135.682 99.0758C135.462 98.7008 134.98 98.1361 134.613 97.8609C137.701 96.4745 137.776 94.4275 137.743 92.2832Z" fill="#9E1C1C"/>
<path d="M16.4605 45.7778L79.0619 32.4714C89.5961 30.2323 99.951 36.9568 102.19 47.491L115.704 111.071C117.943 121.605 111.219 131.96 100.685 134.199L38.0833 147.505C27.5491 149.744 17.1943 143.02 14.9551 132.486L1.44089 68.9059C-0.798229 58.3717 5.92628 48.0169 16.4605 45.7778Z" fill="url(#paint3_linear_117_110)" stroke="url(#paint4_linear_117_110)"/>
<path d="M17.3683 58.8215L18.9196 58.4918L19.9792 63.4764L18.4278 63.8061L17.3683 58.8215ZM18.331 69.103L22.4637 68.2246L22.7529 69.5852L18.6202 70.4636L18.331 69.103ZM15.0239 61.0476L22.0685 59.5502L22.3604 60.9235L15.3158 62.4209L15.0239 61.0476ZM15.9692 63.744L22.3653 62.3844L22.6599 63.7705L16.2638 65.13L15.9692 63.744ZM16.885 66.1144L22.5945 64.9008L23.6648 69.9363L22.2025 70.2471L21.4213 66.5722L18.573 67.1776L19.3568 70.8653L17.958 71.1626L16.885 66.1144ZM11.6997 60.0397L13.1476 60.2237C12.8371 61.3263 12.48 62.5851 12.1327 63.3899L11.0135 63.1892C11.3091 62.3289 11.5964 60.992 11.6997 60.0397ZM13.5445 61.2158L14.9424 61.4769C14.3122 63.1392 13.4418 65.1716 12.6924 66.4606L11.6641 66.1874C12.4 64.8349 13.1598 62.7197 13.5445 61.2158ZM10.382 63.4696L10.8698 62.2628C11.6808 62.7018 12.6421 63.348 13.0917 63.8373L12.5701 65.1974C12.1224 64.6546 11.1603 63.9421 10.382 63.4696ZM13.878 64.3479L14.8589 63.6477C15.5486 64.3916 16.2924 65.3897 16.6145 66.0921L15.5708 66.8721C15.2642 66.1798 14.5477 65.1226 13.878 64.3479ZM10.918 66.0536C12.0925 65.7641 13.8183 65.3175 15.5033 64.8663L15.7474 66.0771C14.1849 66.5421 12.5562 67.0079 11.3262 67.3491L10.918 66.0536ZM14.7853 67.491L15.826 66.8844C16.3187 67.577 16.8729 68.4959 17.1633 69.112L16.0599 69.7984C15.8049 69.1615 15.2554 68.2018 14.7853 67.491ZM11.8621 67.8067L13.1669 67.7552C13.2992 69.003 13.2898 70.3341 13.094 71.2263C12.7918 71.1177 12.1628 70.9723 11.8179 70.9127C12.0272 70.0841 11.9901 68.9091 11.8621 67.8067ZM13.0831 66.2978L14.4437 66.0086L15.6491 71.6799L14.2885 71.9691L13.0831 66.2978ZM28.9417 59.0595L34.9054 57.7918L35.1622 58.9998L29.1984 60.2675L28.9417 59.0595ZM30.5345 64.9275L34.6926 64.0437L34.917 65.0991L30.7589 65.9829L30.5345 64.9275ZM30.9129 66.7077L35.071 65.8239L35.3143 66.9683L31.1562 67.8522L30.9129 66.7077ZM28.1652 61.9092C29.1608 61.5912 30.6081 61.0842 32.0299 60.5827L32.3402 61.7926C31.051 62.2926 29.7109 62.8033 28.6397 63.2038L28.1652 61.9092ZM30.9013 57.274L32.2873 56.9794C32.8039 59.222 33.8281 60.8517 34.4357 60.7092C34.6138 60.6714 34.6252 60.35 34.5228 59.6807C34.8566 59.8755 35.3376 60.0125 35.6898 60.044C35.8091 61.4805 35.4671 61.8722 34.6278 62.0506C33.0511 62.3858 31.6698 60.3269 30.9013 57.274ZM29.3026 63.1958L35.1137 61.9606L36.2327 67.225L34.7322 67.5439L33.8646 63.4621L30.9908 64.073L31.8665 68.1929L30.4296 68.4984L29.3026 63.1958ZM27.9135 57.0984L29.4087 57.1926L30.3953 61.8339L28.9838 62.1339L27.9135 57.0984ZM32.7746 55.5202L34.0663 56.2823C32.6966 57.0918 30.668 57.8021 28.9094 58.2822C28.7936 57.9878 28.5129 57.5425 28.3109 57.2797C29.9523 56.8112 31.7902 56.1414 32.7746 55.5202ZM23.0688 60.2546L26.9345 59.4329L27.2318 60.8317L23.3661 61.6534L23.0688 60.2546ZM24.0314 57.4052L25.5108 57.237C25.636 60.0146 25.6911 63.5249 25.6208 65.9454L24.246 65.4801C24.323 63.4037 24.2206 59.9832 24.0314 57.4052ZM24.7252 65.0459L25.401 63.7859C26.809 64.4701 28.6877 65.4928 29.5898 66.2979L28.8728 67.7395C27.9908 66.9036 26.1567 65.7783 24.7252 65.0459ZM26.4004 59.5465L26.6547 59.4924L26.9036 59.4129L27.8027 59.3281C28.6495 64.4377 28.1579 67.4395 26.0126 69.4771C25.7281 69.1389 25.2304 68.6732 24.8603 68.4329C26.716 66.9087 27.1495 63.9459 26.4572 59.8135L26.4004 59.5465ZM44.0848 54.0199L44.9237 52.9644C45.5797 53.237 46.457 53.6752 46.9022 54.0191L46.0287 55.1617C45.6062 54.7996 44.7589 54.3152 44.0848 54.0199ZM35.948 57.1316L47.3923 54.6991L47.7085 56.1868L36.2642 58.6194L35.948 57.1316ZM37.0455 59.9817L42.5515 58.8114L42.865 60.2864L37.359 61.4568L37.0455 59.9817ZM39.1567 60.4101L40.6826 60.0858L41.5989 64.3965L40.073 64.7208L39.1567 60.4101ZM37.611 65.0182C39.101 64.4623 41.5014 63.5002 43.6984 62.5813L44.102 63.9176C42.1012 64.8214 39.9505 65.7702 38.3704 66.4649L37.611 65.0182ZM41.7428 53.6937L43.3832 53.345C44.3796 58.5956 46.4244 63.4638 47.6325 63.2071C47.9122 63.1476 47.9034 62.4185 47.6392 60.8001C48.0582 61.0831 48.696 61.333 49.1608 61.3937C49.4482 63.8711 49.0539 64.5795 47.8459 64.8363C45.0865 65.4228 43.0069 59.5785 41.7428 53.6937Z" fill="black"/>
<path d="M24.2052 103.829L27.683 120.191L24.7191 120.821L21.8543 107.344L21.7584 107.364L18.4513 110.622L17.8739 107.906L21.3851 104.429L24.2052 103.829ZM31.8374 119.308L31.3823 117.167L35.8789 110.391C36.3056 109.727 36.6547 109.144 36.9263 108.641C37.1979 108.138 37.3818 107.667 37.478 107.229C37.5742 106.791 37.5742 106.346 37.4779 105.893C37.3681 105.376 37.157 104.959 36.8445 104.642C36.5309 104.319 36.1476 104.099 35.6944 103.984C35.2413 103.869 34.7538 103.867 34.2318 103.978C33.6939 104.092 33.2463 104.304 32.8891 104.614C32.5307 104.918 32.2827 105.297 32.145 105.749C32.0127 106.2 32.006 106.705 32.1248 107.265L29.3047 107.864C29.0839 106.826 29.129 105.872 29.44 105.005C29.751 104.137 30.2773 103.404 31.0187 102.807C31.7654 102.209 32.6794 101.794 33.7606 101.565C34.8578 101.331 35.8654 101.332 36.7834 101.565C37.7015 101.799 38.4654 102.223 39.0751 102.84C39.6902 103.455 40.0951 104.221 40.2898 105.137C40.42 105.749 40.4308 106.376 40.3221 107.017C40.2134 107.658 39.9399 108.401 39.5015 109.246C39.0685 110.089 38.4307 111.135 37.5881 112.383L35.3776 115.85L35.4014 115.962L42.5277 114.447L43.0541 116.924L31.8374 119.308ZM51.9244 115.364C50.6088 115.644 49.4089 115.551 48.3247 115.086C47.2447 114.614 46.3175 113.8 45.5432 112.646C44.7731 111.485 44.1985 110.012 43.8192 108.228C43.4453 106.442 43.3756 104.871 43.6102 103.512C43.849 102.148 44.367 101.036 45.164 100.176C45.9663 99.3154 47.0226 98.7457 48.3328 98.4672C49.643 98.1887 50.8397 98.2795 51.9228 98.7396C53.0059 99.1996 53.9313 100.005 54.6992 101.155C55.4723 102.305 56.0479 103.769 56.4261 105.548C56.8064 107.337 56.8784 108.92 56.6418 110.295C56.4095 111.664 55.8927 112.781 55.0915 113.647C54.2956 114.512 53.2399 115.085 51.9244 115.364ZM51.3928 112.864C52.4155 112.646 53.1154 111.971 53.4926 110.839C53.874 109.7 53.8559 108.148 53.4381 106.183C53.1619 104.883 52.794 103.82 52.3344 102.994C51.8749 102.168 51.3499 101.583 50.7595 101.241C50.1679 100.894 49.5339 100.792 48.8575 100.936C47.8402 101.152 47.1435 101.829 46.7675 102.967C46.3902 104.099 46.4061 105.64 46.8151 107.591C47.0872 108.897 47.4509 109.966 47.9062 110.799C48.3669 111.631 48.8931 112.22 49.4846 112.568C50.075 112.91 50.7111 113.009 51.3928 112.864ZM59.0311 94.9756L74.7342 91.6378L78.8754 111.121L75.9733 111.737L72.4107 94.9768L62.3994 97.1048L65.9667 113.888L63.177 114.481L59.0311 94.9756ZM62.5501 102.128L74.6537 99.5555L75.2227 102.233L63.1191 104.805L62.5501 102.128ZM64.1774 109.895L76.3035 107.317L76.8821 110.039L64.756 112.617L64.1774 109.895Z" fill="black"/>
<path d="M29.342 134.982C28.7418 135.11 28.1864 135.12 27.6759 135.014C27.1681 134.907 26.7404 134.699 26.3929 134.389C26.0454 134.08 25.8122 133.686 25.6934 133.209L27.2606 132.876C27.3236 133.104 27.4428 133.289 27.6184 133.432C27.7933 133.572 28.0062 133.664 28.2569 133.71C28.5076 133.755 28.7761 133.748 29.0623 133.687C29.368 133.622 29.6277 133.511 29.8415 133.356C30.0546 133.197 30.2075 133.008 30.3001 132.788C30.3928 132.568 30.4111 132.333 30.3552 132.083C30.303 131.824 30.1879 131.611 30.0098 131.442C29.8317 131.274 29.6016 131.162 29.3196 131.105C29.0403 131.049 28.72 131.058 28.3588 131.135L27.6043 131.296L27.3509 130.104L28.1054 129.943C28.4027 129.88 28.6516 129.773 28.8521 129.623C29.0553 129.473 29.201 129.291 29.2893 129.077C29.377 128.861 29.3931 128.63 29.3378 128.383C29.2892 128.141 29.1904 127.942 29.0414 127.788C28.8946 127.631 28.7106 127.523 28.4893 127.465C28.2707 127.407 28.028 127.407 27.7613 127.463C27.5001 127.519 27.2683 127.618 27.0661 127.759C26.8639 127.901 26.7133 128.074 26.6144 128.278C26.5148 128.479 26.4863 128.7 26.5287 128.941L25.0407 129.257C24.9502 128.777 24.9986 128.328 25.1858 127.911C25.3751 127.49 25.6706 127.131 26.0721 126.833C26.473 126.533 26.9499 126.324 27.5029 126.207C28.0726 126.086 28.59 126.088 29.055 126.212C29.5223 126.334 29.9094 126.549 30.2162 126.859C30.523 127.168 30.7225 127.54 30.8147 127.973C30.9196 128.453 30.8636 128.886 30.6464 129.272C30.4321 129.658 30.1049 129.949 29.6649 130.148L29.6791 130.214C30.297 130.17 30.8042 130.295 31.2005 130.588C31.5991 130.878 31.8537 131.29 31.9643 131.824C32.0659 132.302 32.0207 132.759 31.8287 133.195C31.6389 133.627 31.3291 134.001 30.8994 134.316C30.4725 134.63 29.9534 134.852 29.342 134.982ZM36.3106 124.264L42.3086 122.989L42.568 124.21L36.57 125.485L36.3106 124.264ZM36.3905 126.602L43.1397 125.168L43.4042 126.412L36.655 127.847L36.3905 126.602ZM36.8905 128.839L43.5341 127.427L43.7961 128.66L37.1525 130.072L36.8905 128.839ZM38.309 122.526L39.6941 122.232L40.6097 126.54L39.2246 126.834L38.309 122.526ZM40.7952 126.893L42.1685 126.601L43.2014 131.46C43.3461 132.141 43.2943 132.533 42.879 132.829C42.4544 133.14 41.8255 133.299 40.9452 133.486C40.8159 133.108 40.4849 132.59 40.2197 132.266C40.7999 132.167 41.4454 132.03 41.619 131.981C41.8068 131.941 41.858 131.893 41.8231 131.729L40.7952 126.893ZM37.7892 130.758L38.7788 129.873C39.4527 130.331 40.2395 130.974 40.6199 131.494L39.5606 132.455C39.2204 131.951 38.4563 131.242 37.7892 130.758ZM32.5713 124.507L35.5997 123.863L37.3062 131.892L34.2779 132.535L34.0109 131.279L35.7246 130.915L34.552 125.398L32.8383 125.763L32.5713 124.507ZM33.3503 127.825L35.6274 127.341L35.8894 128.574L33.6123 129.058L33.3503 127.825ZM31.914 124.646L33.2169 124.369L35.1455 133.443L33.8426 133.72L31.914 124.646ZM48.5311 127.849L51.7472 127.166L51.9618 128.175L48.7457 128.859L48.5311 127.849ZM48.0797 126.13L52.0353 125.289L52.9934 129.796L49.0377 130.637L48.8182 129.604L51.4592 129.043L50.9402 126.601L48.2992 127.163L48.0797 126.13ZM47.5045 126.252L48.7722 125.983L49.8575 131.088L48.5898 131.358L47.5045 126.252ZM44.8215 123.326L47.7677 122.7L47.9698 123.65L45.0236 124.277L44.8215 123.326ZM50.2679 122.168L53.2375 121.537L53.4396 122.488L50.4699 123.119L50.2679 122.168ZM52.3156 120.028L53.7358 119.726L55.6295 128.635C55.7917 129.398 55.7264 129.841 55.3068 130.176C54.8872 130.51 54.2114 130.678 53.2019 130.893C53.0584 130.506 52.7074 129.894 52.4398 129.558C53.0576 129.464 53.7711 129.3 53.9824 129.255C54.1937 129.21 54.2491 129.124 54.2067 128.925L52.3156 120.028ZM44.5921 121.669L48.3012 120.881L49.2069 125.142L45.4978 125.93L45.2832 124.921L47.6777 124.412L47.2037 122.182L44.8092 122.691L44.5921 121.669ZM53.0668 119.868L53.2838 120.889L50.6546 121.448L51.1361 123.713L53.7654 123.155L53.9799 124.164L50.0126 125.007L49.0994 120.711L53.0668 119.868ZM43.7822 121.841L45.179 121.545L47.4269 132.12L46.0301 132.417L43.7822 121.841ZM59.2336 128.507L59.024 127.521C61.1008 125.055 62.7244 122.882 62.43 121.497C62.2429 120.617 61.4943 120.211 60.6375 120.393C59.8158 120.568 59.328 121.101 58.7692 121.993L57.5526 121.233C58.2419 120.032 59.2397 119.243 60.4135 118.993C62.2094 118.612 63.7336 119.318 64.1078 121.079C64.4671 122.769 63.258 124.584 61.7168 126.568C62.1763 126.421 62.5797 126.299 63.0022 126.209L65.4789 125.682L65.7833 127.114L59.2336 128.507ZM70.9596 126.014L70.6627 124.617L73.2333 124.071L72.0607 118.554L70.0301 118.986L69.803 117.918C70.8405 117.489 71.5835 117.233 72.1342 116.649L73.4019 116.38L74.9588 123.704L77.3181 123.203L77.615 124.6L70.9596 126.014ZM81.1662 117.931L87.5163 116.582L87.8082 117.955L81.4581 119.305L81.1662 117.931ZM87.0586 116.679L88.5375 116.365C88.5375 116.365 88.6181 116.801 88.6438 116.98C89.2731 120.576 89.4292 122.002 89.1206 122.571C88.912 123.033 88.6058 123.208 88.1748 123.373C87.7764 123.519 87.0931 123.652 86.3956 123.776C86.2848 123.37 85.9673 122.8 85.6242 122.455C86.294 122.374 86.9068 122.256 87.2003 122.194C87.4116 122.149 87.5332 122.087 87.6349 121.93C87.8517 121.565 87.7014 120.223 87.1134 116.937L87.0586 116.679ZM81.6094 113.494L83.2301 113.616C82.7839 115.846 81.7535 118.04 80.5216 119.516C80.1867 119.268 79.4566 118.835 79.0588 118.637C80.3307 117.348 81.2843 115.428 81.6094 113.494ZM86.0765 112.52C87.1328 113.854 88.976 115.253 90.4767 115.965C90.1543 116.352 89.7366 117.042 89.5514 117.499C87.9656 116.56 86.1177 114.965 84.8087 113.366L86.0765 112.52ZM83.3521 117.884L84.878 117.56C85.2163 120.248 85.2331 122.809 82.0121 124.855C81.7537 124.505 81.2157 123.994 80.8221 123.758C83.7483 122.057 83.6084 120.013 83.3521 117.884Z" fill="black"/>
<path d="M189.953 18.2985C190.361 18.3937 190.887 18.4882 191.327 18.5344C192.142 18.62 195.762 19.0005 196.524 19.0806C196.951 19.1255 197.472 19.141 197.917 19.1355L197.742 20.8033C197.305 20.7313 196.804 20.6524 196.364 20.6062C195.601 20.5261 191.981 20.1456 191.167 20.06C190.727 20.0138 190.168 19.9812 189.778 19.9663L189.953 18.2985ZM188.094 21.4363C188.476 21.5288 188.926 21.6022 189.327 21.6443C190.142 21.73 197.033 22.4542 197.795 22.5344C198.067 22.5629 198.637 22.6098 198.993 22.5818L198.816 24.2626C198.482 24.2143 197.992 24.1498 197.63 24.1117C196.867 24.0315 189.976 23.3073 189.161 23.2217C188.786 23.1822 188.281 23.1422 187.916 23.13L188.094 21.4363ZM194.618 23.0371C194.44 24.7307 194.007 25.9924 193.338 27.007C192.804 27.8658 191.691 28.7554 190.49 29.2305L189.08 27.9712C190.036 27.7057 191.032 27.0652 191.616 26.3554C192.366 25.4408 192.675 24.2445 192.82 22.8611L194.618 23.0371ZM210.932 21.6668C210.814 21.7982 210.54 22.1616 210.395 22.4208C209.736 23.5934 208.595 25.2511 207.347 26.4271C205.723 27.9427 203.603 29.3407 201.5 30.0739L200.302 28.5363C202.478 27.9807 204.635 26.6126 205.991 25.3958C206.946 24.5158 207.87 23.3187 208.263 22.4321C207.72 22.375 204.424 22.0285 203.868 21.97C203.338 21.9143 202.62 21.9042 202.333 21.9002L202.527 20.0514C202.87 20.1398 203.668 20.2628 204.043 20.3022C204.728 20.3742 208.038 20.7221 208.607 20.7819C209.176 20.8417 209.687 20.83 209.968 20.7681L210.932 21.6668ZM207.628 25.3717C208.845 26.5977 210.479 28.717 211.21 29.8397L209.602 30.9647C208.785 29.5325 207.538 27.8458 206.286 26.4463L207.628 25.3717ZM216.347 29.8436C216.452 28.8481 217.014 23.4956 217.128 22.4096C217.177 21.9441 217.205 21.3065 217.163 20.8316L219.18 21.0436C219.08 21.5036 218.957 22.0527 218.9 22.5957C218.75 24.0179 218.232 29.0744 218.131 30.0311C218.093 30.3931 218.05 31.3036 218.059 31.8405L216.029 31.6271C216.172 31.1324 216.294 30.3478 216.347 29.8436ZM218.337 24.3405C220.006 24.9996 222.692 26.3145 223.893 27.0682L222.981 28.7892C221.587 27.8715 219.502 26.8158 218.141 26.2022L218.337 24.3405Z" fill="#43611C"/>
<path d="M190.734 81.2571L191.881 70.3462C191.989 69.3168 192.179 67.9492 192.393 66.7922L192.302 66.7826C191.465 67.9204 190.704 68.9968 190.011 69.8721L186.709 73.7804L196.911 74.8527L196.637 77.4603L182.867 76.013L183.112 73.6799L191.262 64.1294L195.631 64.5886L193.845 81.584L190.734 81.2571ZM208.095 83.4021C206.758 83.2615 205.645 82.8024 204.758 82.0248C203.876 81.2423 203.246 80.1823 202.866 78.8448C202.493 77.5025 202.401 75.9242 202.592 74.1101C202.788 72.2966 203.208 70.7803 203.85 69.5612C204.499 68.3373 205.335 67.4396 206.359 66.8683C207.388 66.2976 208.569 66.0822 209.901 66.2222C211.233 66.3622 212.343 66.8184 213.231 67.5906C214.119 68.3628 214.75 69.4147 215.125 70.7462C215.505 72.0783 215.6 73.6486 215.41 75.4573C215.219 77.2769 214.798 78.804 214.148 80.0388C213.504 81.2687 212.668 82.1717 211.638 82.7479C210.614 83.3246 209.433 83.5427 208.095 83.4021ZM208.362 80.8596C209.402 80.9689 210.276 80.5434 210.985 79.5831C211.7 78.618 212.162 77.1363 212.372 75.138C212.511 73.8167 212.49 72.6921 212.308 71.7641C212.126 70.8362 211.807 70.1183 211.352 69.6105C210.896 69.0972 210.325 68.8045 209.637 68.7322C208.603 68.6235 207.731 69.052 207.022 70.0177C206.313 70.978 205.852 72.4489 205.638 74.4303C205.493 75.7564 205.509 76.8859 205.684 77.8187C205.866 78.7521 206.184 79.4754 206.639 79.9886C207.095 80.4965 207.669 80.7868 208.362 80.8596ZM221.155 66.2074L237.121 67.8855L235.039 87.6944L232.088 87.3843L233.879 70.3432L223.7 69.2733L221.906 86.3373L219.07 86.0392L221.155 66.2074ZM222.291 74.0975L234.597 75.3909L234.311 78.1129L222.005 76.8195L222.291 74.0975ZM221.439 81.9866L233.768 83.2824L233.477 86.0502L221.148 84.7543L221.439 81.9866Z" fill="#43611C"/>
<path d="M183.527 87.7069L182.615 96.3864L181.043 96.2211L181.794 89.0716L181.743 89.0662L179.577 90.1497L179.729 88.7088L182.031 87.5497L183.527 87.7069ZM188.01 97.1205C187.312 97.0471 186.731 96.8076 186.268 96.4019C185.809 95.9936 185.48 95.4406 185.282 94.7427C185.087 94.0424 185.039 93.219 185.139 92.2725C185.241 91.3263 185.46 90.5352 185.795 89.8991C186.134 89.2606 186.57 88.7922 187.104 88.4942C187.641 88.1964 188.257 88.084 188.952 88.1571C189.647 88.2301 190.226 88.4681 190.689 88.871C191.153 89.2739 191.482 89.8227 191.677 90.5174C191.876 91.2124 191.925 92.0317 191.826 92.9754C191.726 93.9247 191.507 94.7215 191.168 95.3657C190.832 96.0074 190.395 96.4785 189.858 96.7791C189.324 97.0801 188.708 97.1938 188.01 97.1205ZM188.149 95.794C188.692 95.851 189.148 95.629 189.517 95.128C189.89 94.6244 190.132 93.8513 190.241 92.8088C190.314 92.1194 190.302 91.5326 190.208 91.0485C190.113 90.5643 189.946 90.1898 189.709 89.9248C189.471 89.6571 189.173 89.5043 188.814 89.4666C188.275 89.4099 187.82 89.6335 187.45 90.1373C187.08 90.6383 186.839 91.4058 186.728 92.4395C186.652 93.1314 186.66 93.7207 186.752 94.2074C186.846 94.6944 187.012 95.0718 187.25 95.3395C187.488 95.6045 187.787 95.756 188.149 95.794ZM198.047 89.0433L204.146 89.6842L204.015 90.9254L197.917 90.2844L198.047 89.0433ZM197.401 91.292L204.263 92.0132L204.13 93.2783L197.268 92.557L197.401 91.292ZM197.185 93.574L203.94 94.2839L203.808 95.537L197.053 94.8271L197.185 93.574ZM200.485 88.0084L201.893 88.1564L201.433 92.5363L200.025 92.3883L200.485 88.0084ZM201.5 92.9295L202.896 93.0762L202.377 98.017C202.304 98.7092 202.134 99.0654 201.648 99.2193C201.148 99.384 200.501 99.3401 199.606 99.246C199.599 98.8472 199.445 98.2518 199.293 97.8617C199.875 97.9471 200.531 98.016 200.711 98.0229C200.902 98.043 200.966 98.0135 200.983 97.8464L201.5 92.9295ZM197.447 95.6768L198.661 95.1409C199.161 95.7846 199.711 96.6387 199.912 97.2511L198.607 97.838C198.439 97.2532 197.932 96.3432 197.447 95.6768ZM194.416 88.1186L197.495 88.4423L196.637 96.6053L193.558 96.2817L193.692 95.0047L195.435 95.1878L196.024 89.5787L194.282 89.3956L194.416 88.1186ZM194.132 91.5155L196.447 91.7588L196.315 93.0119L194 92.7686L194.132 91.5155ZM193.748 88.0484L195.073 88.1876L194.103 97.4128L192.778 97.2736L193.748 88.0484ZM208.562 96.2297L211.832 96.5734L211.724 97.5997L208.454 97.256L208.562 96.2297ZM208.664 94.4546L212.686 94.8774L212.204 99.4601L208.182 99.0374L208.293 97.9872L210.978 98.2694L211.239 95.7871L208.554 95.5049L208.664 94.4546ZM208.079 94.3932L209.368 94.5286L208.822 99.7201L207.534 99.5846L208.079 94.3932ZM206.432 90.7812L209.427 91.096L209.326 92.0627L206.33 91.7479L206.432 90.7812ZM211.969 91.3632L214.989 91.6805L214.887 92.6472L211.868 92.3299L211.969 91.3632ZM214.578 89.9602L216.022 90.112L215.07 99.1701C214.989 99.9458 214.79 100.347 214.287 100.536C213.785 100.724 213.09 100.675 212.064 100.567C212.047 100.155 211.902 99.4646 211.751 99.0626C212.368 99.1636 213.097 99.2282 213.312 99.2508C213.527 99.2734 213.606 99.2093 213.627 99.0064L214.578 89.9602ZM206.725 89.1349L210.497 89.5312L210.041 93.8634L206.27 93.467L206.378 92.4407L208.813 92.6965L209.051 90.429L206.616 90.1731L206.725 89.1349ZM215.342 90.0405L215.233 91.0788L212.56 90.7978L212.317 93.1011L214.991 93.3821L214.883 94.4084L210.849 93.9845L211.308 89.6165L215.342 90.0405ZM205.902 89.0483L207.322 89.1976L206.192 99.9504L204.772 99.8011L205.902 89.0483ZM218.526 100.161L218.675 98.7405L221.288 99.0152L221.878 93.4061L219.813 93.1891L219.927 92.1031C221.047 92.0156 221.833 92.0017 222.537 91.6172L223.825 91.7526L223.043 99.1996L225.442 99.4518L225.292 100.872L218.526 100.161ZM230.73 95.6276L237.187 96.3062L237.04 97.7025L230.584 97.0239L230.73 95.6276ZM236.721 96.2573L238.225 96.4153C238.225 96.4153 238.167 96.8557 238.136 97.0334C237.623 100.648 237.331 102.053 236.862 102.498C236.521 102.873 236.175 102.945 235.714 102.969C235.29 102.985 234.599 102.9 233.898 102.802C233.918 102.382 233.792 101.741 233.572 101.308C234.234 101.438 234.853 101.515 235.152 101.546C235.367 101.569 235.502 101.547 235.647 101.429C235.966 101.149 236.238 99.8263 236.694 96.5199L236.721 96.2573ZM232.523 91.5446L234.027 92.1612C232.913 94.1437 231.255 95.9121 229.628 96.9355C229.386 96.5964 228.825 95.9583 228.508 95.6474C230.116 94.8149 231.616 93.2834 232.523 91.5446ZM237.072 91.9987C237.665 93.5933 238.985 95.4938 240.193 96.6342C239.766 96.9031 239.156 97.4302 238.839 97.8071C237.621 96.4242 236.356 94.3366 235.605 92.4116L237.072 91.9987ZM232.824 96.2579L234.375 96.421C233.866 99.0824 233.091 101.523 229.395 102.474C229.258 102.061 228.904 101.408 228.602 101.063C231.911 100.349 232.41 98.3621 232.824 96.2579Z" fill="#43611C"/>
<path d="M270.164 114.507L270.401 113.39L273.982 111.114C274.327 110.888 274.617 110.684 274.853 110.502C275.089 110.32 275.277 110.135 275.416 109.947C275.554 109.758 275.649 109.546 275.699 109.31C275.756 109.04 275.744 108.797 275.663 108.579C275.582 108.358 275.446 108.173 275.254 108.021C275.062 107.87 274.831 107.766 274.558 107.708C274.278 107.648 274.019 107.654 273.783 107.726C273.548 107.795 273.349 107.923 273.188 108.109C273.029 108.296 272.918 108.536 272.856 108.828L271.385 108.515C271.5 107.973 271.724 107.528 272.056 107.181C272.389 106.833 272.795 106.596 273.275 106.468C273.758 106.341 274.282 106.338 274.846 106.458C275.418 106.579 275.898 106.793 276.286 107.099C276.674 107.406 276.948 107.77 277.108 108.193C277.271 108.617 277.301 109.068 277.2 109.546C277.132 109.866 277.004 110.167 276.816 110.449C276.628 110.731 276.34 111.027 275.952 111.337C275.567 111.647 275.041 112.01 274.374 112.426L272.585 113.61L272.573 113.668L276.291 114.459L276.016 115.751L270.164 114.507ZM283.573 108.242L289.571 109.517L289.311 110.737L283.313 109.463L283.573 108.242ZM282.695 110.411L289.444 111.845L289.179 113.089L282.43 111.655L282.695 110.411ZM282.242 112.658L288.885 114.07L288.623 115.302L281.98 113.89L282.242 112.658ZM286.105 107.467L287.49 107.762L286.575 112.07L285.19 111.775L286.105 107.467ZM286.6 112.468L287.974 112.76L286.941 117.619C286.796 118.3 286.59 118.636 286.089 118.738C285.575 118.85 284.936 118.739 284.056 118.552C284.091 118.154 284 117.546 283.889 117.142C284.459 117.288 285.105 117.425 285.284 117.451C285.471 117.491 285.538 117.468 285.572 117.304L286.6 112.468ZM282.282 114.776L283.546 114.37C283.976 115.063 284.433 115.97 284.569 116.6L283.21 117.047C283.105 116.448 282.695 115.49 282.282 114.776ZM280.058 106.943L283.086 107.586L281.38 115.615L278.352 114.971L278.619 113.715L280.332 114.08L281.505 108.563L279.791 108.199L280.058 106.943ZM279.42 110.291L281.697 110.775L281.435 112.008L279.158 111.524L279.42 110.291ZM279.401 106.803L280.704 107.08L278.775 116.153L277.472 115.876L279.401 106.803ZM293.278 116.488L296.495 117.172L296.28 118.181L293.064 117.497L293.278 116.488ZM293.566 114.733L297.521 115.574L296.563 120.081L292.608 119.241L292.827 118.208L295.468 118.769L295.987 116.328L293.346 115.766L293.566 114.733ZM292.99 114.611L294.258 114.881L293.173 119.986L291.905 119.717L292.99 114.611ZM291.73 110.847L294.676 111.473L294.474 112.424L291.527 111.797L291.73 110.847ZM297.176 112.004L300.146 112.636L299.943 113.586L296.974 112.955L297.176 112.004ZM299.917 110.882L301.337 111.184L299.444 120.093C299.282 120.856 299.042 121.234 298.522 121.369C298.003 121.504 297.317 121.383 296.308 121.168C296.334 120.756 296.262 120.054 296.154 119.639C296.757 119.804 297.476 119.944 297.687 119.989C297.898 120.034 297.984 119.978 298.026 119.779L299.917 110.882ZM292.194 109.24L295.903 110.028L294.997 114.289L291.288 113.501L291.503 112.491L293.897 113L294.371 110.77L291.977 110.261L292.194 109.24ZM300.668 111.041L300.451 112.063L297.822 111.504L297.341 113.769L299.97 114.328L299.755 115.337L295.788 114.494L296.701 110.198L300.668 111.041ZM291.384 109.068L292.781 109.365L290.533 119.941L289.136 119.644L291.384 109.068ZM304.05 121.88C303.364 121.734 302.812 121.435 302.394 120.983C301.979 120.529 301.71 119.944 301.586 119.23C301.465 118.513 301.504 117.689 301.702 116.758C301.902 115.828 302.203 115.064 302.603 114.466C303.006 113.867 303.489 113.446 304.051 113.206C304.616 112.966 305.241 112.918 305.924 113.064C306.608 113.209 307.159 113.506 307.577 113.955C307.996 114.404 308.266 114.985 308.388 115.696C308.513 116.408 308.476 117.228 308.279 118.156C308.081 119.09 307.779 119.859 307.375 120.465C306.973 121.068 306.49 121.491 305.924 121.733C305.361 121.977 304.737 122.025 304.05 121.88ZM304.328 120.575C304.861 120.688 305.338 120.515 305.758 120.056C306.182 119.594 306.502 118.85 306.72 117.825C306.864 117.147 306.915 116.562 306.871 116.071C306.827 115.579 306.701 115.189 306.492 114.901C306.284 114.61 306.003 114.427 305.65 114.352C305.12 114.239 304.644 114.414 304.223 114.876C303.803 115.336 303.484 116.074 303.265 117.09C303.117 117.77 303.064 118.357 303.104 118.851C303.147 119.345 303.273 119.738 303.481 120.029C303.69 120.317 303.972 120.499 304.328 120.575ZM311.48 117.376L317.83 118.725L317.538 120.099L311.188 118.749L311.48 117.376ZM317.372 118.628L318.851 118.942C318.851 118.942 318.747 119.374 318.698 119.548C317.81 123.089 317.372 124.455 316.859 124.849C316.481 125.186 316.13 125.222 315.669 125.198C315.246 125.169 314.567 125.012 313.88 124.842C313.944 124.426 313.885 123.776 313.712 123.322C314.357 123.52 314.965 123.662 315.258 123.724C315.47 123.769 315.606 123.761 315.763 123.659C316.109 123.414 316.518 122.127 317.317 118.886L317.372 118.628ZM313.689 113.502L315.12 114.273C313.806 116.128 311.972 117.713 310.246 118.561C310.041 118.198 309.55 117.505 309.267 117.163C310.953 116.503 312.606 115.137 313.689 113.502ZM318.166 114.429C318.589 116.077 319.704 118.105 320.785 119.366C320.333 119.589 319.671 120.049 319.316 120.391C318.249 118.888 317.209 116.68 316.664 114.687L318.166 114.429ZM313.496 118.221L315.022 118.546C314.237 121.139 313.211 123.485 309.436 124.045C309.343 123.62 309.059 122.934 308.795 122.559C312.161 122.194 312.864 120.271 313.496 118.221Z" fill="white"/>
<path d="M282.047 36.2328L283.458 36.5328L280.931 48.4222L279.52 48.1222L282.047 36.2328ZM279.321 40.0526L284.28 41.1067L283.978 42.5309L279.018 41.4767L279.321 40.0526ZM280.837 41.1723L281.59 41.7576C280.821 43.375 279.575 45.4227 278.464 46.4624C278.437 45.9649 278.236 45.2179 278.099 44.7369C279.075 43.9608 280.227 42.3582 280.837 41.1723ZM282.128 42.2307C282.426 42.6397 283.398 44.3214 283.617 44.7269L282.435 45.7249C282.24 44.9525 281.642 43.39 281.301 42.6797L282.128 42.2307ZM279.988 36.7919L281.112 36.7519C281.259 37.7531 281.269 39.0179 281.149 39.8298L279.943 39.879C280.075 39.0698 280.095 37.785 279.988 36.7919ZM284.053 37.2973L285.278 37.85C284.741 38.8124 284.103 39.9393 283.61 40.632L282.701 40.1596C283.141 39.4025 283.719 38.1831 284.053 37.2973ZM285.858 40.937L289.304 41.6695L289.015 43.0301L285.569 42.2976L285.858 40.937ZM285.169 44.1796L288.615 44.912L288.326 46.2726L284.88 45.5402L285.169 44.1796ZM282.424 47.0251L289.761 48.5847L289.461 49.9961L282.124 48.4366L282.424 47.0251ZM285.673 37.4952L290.899 38.6061L288.65 49.1857L287.111 48.8587L289.06 39.6905L286.835 39.2175L284.886 48.3857L283.424 48.0749L285.673 37.4952ZM292.324 41.9659L303.642 44.3715L303.306 45.9482L291.989 43.5427L292.324 41.9659ZM298.713 43.9883C298.857 47.0624 299.958 49.8217 302.427 51.4628C301.972 51.7251 301.323 52.2782 300.974 52.6692C298.351 50.6896 297.321 47.7196 297.098 44.0173L298.713 43.9883ZM297.82 39.5589L299.498 39.9157C298.611 43.7805 297.439 49.1667 291.424 50.6393C291.272 50.1684 290.918 49.5216 290.543 49.0964C296.251 47.8775 297.049 42.9968 297.82 39.5589ZM307.175 43.3151C308.095 43.6168 309.279 43.9218 310.614 44.2056C311.861 44.4705 313.339 44.705 314.34 44.8114L313.98 46.5026C313.074 46.3897 311.481 46.1308 310.273 45.8741C308.938 45.5903 307.845 45.2915 306.819 44.9936L307.175 43.3151ZM307.113 48.9237C306.889 49.3544 306.713 49.7424 306.621 50.1748C306.448 50.9886 307.087 51.7357 308.931 52.1276C310.647 52.4925 312.303 52.645 313.499 52.5804L313.134 54.3633C311.971 54.3952 310.41 54.2362 308.617 53.8551C305.705 53.2361 304.45 51.9461 304.821 50.2041C304.977 49.4665 305.262 48.8759 305.464 48.427L307.113 48.9237ZM314.946 43.5846C315.164 44.1227 315.436 45.0311 315.578 45.553L314.469 45.7691C314.312 45.191 314.08 44.3442 313.84 43.788L314.946 43.5846ZM316.568 43.3314C316.796 43.8848 317.096 44.7859 317.231 45.2796L316.119 45.5085C315.978 44.9204 315.715 44.0936 315.475 43.5375L316.568 43.3314ZM320.228 45.558C320.566 45.6564 321.006 45.7764 321.273 45.8332C322.011 45.9899 323.369 46.2256 323.965 46.299C324.288 46.3412 324.635 46.3352 324.883 46.2948L325.717 47.3094C325.511 47.465 325.324 47.5979 325.187 47.7416C324.6 48.3745 323.565 49.8689 322.712 51.0697C321.954 52.1315 321.022 53.5149 320.331 54.2052C319.657 54.8728 318.987 55.0891 318.109 54.9026C317.003 54.6674 316.326 53.7261 316.602 52.4291C317.034 50.3945 319.312 49.244 322.033 49.8224C324.996 50.4522 327.255 52.5803 328.395 53.7797L327.282 55.3904C326.013 53.6719 324.083 51.7466 321.463 51.1898C319.607 50.7952 318.325 51.5727 318.128 52.501C318.039 52.9206 318.234 53.1881 318.54 53.253C318.794 53.3071 318.984 53.2278 319.293 52.9612C319.845 52.4273 320.551 51.3548 321.223 50.4475C321.881 49.5376 322.667 48.4022 323.216 47.6949C322.705 47.5995 321.591 47.4025 321.01 47.319C320.741 47.275 320.285 47.2313 319.946 47.1991L320.228 45.558ZM327.958 50.3374C327.012 53.9109 325.803 56.0993 322.428 57.0301L321.303 55.6346C324.73 54.9543 325.617 52.6575 326.048 51.194C326.179 50.7035 326.299 50.1976 326.332 49.7926L327.958 50.3374Z" fill="white"/>
<path d="M281.796 84.5258L278.318 100.888L275.354 100.258L278.219 86.7799L278.123 86.7595L273.777 88.3908L274.354 85.6745L278.976 83.9264L281.796 84.5258ZM288.234 84.4427L303.937 87.7805L299.796 107.263L296.894 106.646L300.456 89.8858L290.445 87.7579L286.877 104.541L284.088 103.948L288.234 84.4427ZM288.539 92.4083L300.643 94.981L300.074 97.6582L287.97 95.0855L288.539 92.4083ZM286.867 100.165L298.993 102.743L298.414 105.465L286.288 102.887L286.867 100.165Z" fill="white"/>
<defs>
<linearGradient id="paint0_linear_117_110" x1="316.694" y1="32.8114" x2="294.864" y2="135.517" gradientUnits="userSpaceOnUse">
<stop stop-color="#FF5555"/>
<stop offset="1" stop-color="#FF8686"/>
</linearGradient>
<linearGradient id="paint1_linear_117_110" x1="117.512" y1="10.2876" x2="128.488" y2="114.712" gradientUnits="userSpaceOnUse">
<stop stop-color="#FFD25E"/>
<stop offset="1" stop-color="#FFDD86"/>
</linearGradient>
<linearGradient id="paint2_linear_117_110" x1="227.691" y1="9.43548" x2="216.715" y2="113.86" gradientUnits="userSpaceOnUse">
<stop stop-color="#CAFF86"/>
<stop offset="1" stop-color="#E0FFB8"/>
</linearGradient>
<linearGradient id="paint3_linear_117_110" x1="47.6573" y1="38.6355" x2="69.488" y2="141.341" gradientUnits="userSpaceOnUse">
<stop stop-color="white"/>
<stop offset="1" stop-color="#B1B1B1"/>
</linearGradient>
<linearGradient id="paint4_linear_117_110" x1="47.6573" y1="38.6355" x2="69.488" y2="141.341" gradientUnits="userSpaceOnUse">
<stop stop-color="#939090"/>
<stop offset="1" stop-color="#D9D9D9"/>
</linearGradient>
</defs>
</svg>
